<svg xmlns="http://www.w3.org/2000/svg" viewBox="0 0 700 800"><defs><style>.cls-1{fill:#00354e;}.cls-2{fill:#003d59;}</style></defs><title>pattern_section_bg_prussian_access</title><g id="Layer_4" data-name="Layer 4"><rect class="cls-1" width="700" height="800"/><polygon class="cls-2" points="658.08 18.24 658.09 0 641.12 0 633.81 4.23 658.08 18.24"/><polygon class="cls-2" points="679.15 0.73 671.9 27.83 698.97 20.58 679.15 0.73"/><polygon class="cls-2" points="483.86 0 479.58 0 479.58 2.47 483.86 0"/><polygon class="cls-2" points="529.95 1.88 502.88 9.13 522.7 28.98 529.95 1.88"/><polygon class="cls-2" points="546.31 10.79 532.3 35.06 560.36 35.08 546.31 10.79"/><polygon class="cls-2" points="600.43 42.57 573.32 35.32 580.58 62.39 600.43 42.57"/><polygon class="cls-2" points="427.59 0 408.17 0 423.49 15.35 427.59 0"/><polygon class="cls-2" points="461.14 21.44 448.75 0 445.46 0 433.09 21.42 461.14 21.44"/><polygon class="cls-2" points="501.21 28.93 474.11 21.69 481.36 48.76 501.21 28.93"/><polygon class="cls-2" points="325.57 0 324.11 0 325.57 0.84 325.57 0"/><polygon class="cls-2" points="366.46 3.18 363.28 0 342.18 0 339.39 10.44 366.46 3.18"/><polygon class="cls-2" points="401.22 14.31 373.16 14.29 387.2 38.58 401.22 14.31"/><polygon class="cls-2" points="424.37 51.09 417.12 24.02 397.27 43.85 424.37 51.09"/><polygon class="cls-2" points="441.8 39.88 441.78 67.94 466.07 53.9 441.8 39.88"/><polygon class="cls-2" points="484.91 94.45 492.15 67.34 465.08 74.6 484.91 94.45"/><polygon class="cls-2" points="522.56 100.55 508.52 76.26 494.5 100.53 522.56 100.55"/><polygon class="cls-2" points="542.78 127.86 562.63 108.03 535.52 100.79 542.78 127.86"/><polygon class="cls-2" points="302 0.67 273.94 0.65 287.99 24.94 302 0.67"/><polygon class="cls-2" points="325.16 37.46 317.9 10.39 298.05 30.21 325.16 37.46"/><polygon class="cls-2" points="342.59 26.25 342.57 54.3 366.86 40.26 342.59 26.25"/><polygon class="cls-2" points="385.69 80.81 392.94 53.71 365.87 60.96 385.69 80.81"/><polygon class="cls-2" points="409.3 62.62 395.29 86.89 423.35 86.91 409.3 62.62"/><polygon class="cls-2" points="463.42 94.4 436.31 87.16 443.56 114.22 463.42 94.4"/><polygon class="cls-2" points="287.77 66.31 287.79 38.26 263.5 52.3 287.77 66.31"/><polygon class="cls-2" points="301.6 75.91 328.67 68.65 308.84 48.8 301.6 75.91"/><polygon class="cls-2" points="363.42 79.77 335.36 79.76 349.41 104.04 363.42 79.77"/><polygon class="cls-2" points="386.57 116.56 379.32 89.49 359.47 109.32 386.57 116.56"/><polygon class="cls-2" points="403.99 133.41 428.27 119.36 404 105.35 403.99 133.41"/><polygon class="cls-2" points="447.11 159.92 454.35 132.81 427.28 140.06 447.11 159.92"/><polygon class="cls-2" points="484.76 166.01 470.72 141.72 456.71 165.99 484.76 166.01"/><polygon class="cls-2" points="504.98 193.33 524.83 173.5 497.73 166.26 504.98 193.33"/><polygon class="cls-2" points="193.54 0 178.71 0 190.41 11.71 193.54 0"/><polygon class="cls-2" points="228.06 17.8 217.76 0 210.27 0 200 17.79 228.06 17.8"/><polygon class="cls-2" points="268.13 25.3 241.03 18.05 248.28 45.12 268.13 25.3"/><polygon class="cls-2" points="188.56 52.67 188.57 24.62 164.29 38.66 188.56 52.67"/><polygon class="cls-2" points="209.63 35.16 202.38 62.27 229.45 55.02 209.63 35.16"/><polygon class="cls-2" points="264.2 66.14 236.15 66.12 250.19 90.41 264.2 66.14"/><polygon class="cls-2" points="287.36 102.92 280.11 75.86 260.25 95.68 287.36 102.92"/><polygon class="cls-2" points="304.77 119.77 329.06 105.73 304.79 91.72 304.77 119.77"/><polygon class="cls-2" points="347.89 146.28 355.14 119.17 328.07 126.43 347.89 146.28"/><polygon class="cls-2" points="385.55 152.38 371.5 128.09 357.49 152.36 385.55 152.38"/><polygon class="cls-2" points="405.77 179.69 425.62 159.87 398.51 152.62 405.77 179.69"/><polygon class="cls-2" points="128.85 4.17 126.44 0 103.19 0 100.79 4.15 128.85 4.17"/><polygon class="cls-2" points="168.92 11.66 141.81 4.42 149.06 31.48 168.92 11.66"/><polygon class="cls-2" points="558.87 0 550.89 0 558.86 4.6 558.87 0"/><polygon class="cls-2" points="599.76 6.94 592.83 0 576.48 0 572.69 14.2 599.76 6.94"/><polygon class="cls-2" points="634.51 18.06 606.45 18.05 620.5 42.33 634.51 18.06"/><polygon class="cls-2" points="657.66 54.85 650.41 27.78 630.56 47.61 657.66 54.85"/><polygon class="cls-2" points="675.08 71.7 699.37 57.66 675.1 43.64 675.08 71.7"/><polygon class="cls-2" points="700 79.98 700 77.92 698.38 78.36 700 79.98"/><polygon class="cls-2" points="620.28 83.71 620.3 55.65 596.01 69.69 620.28 83.71"/><polygon class="cls-2" points="634.11 93.3 661.17 86.05 641.35 66.19 634.11 93.3"/><polygon class="cls-2" points="695.93 97.17 667.87 97.15 681.91 121.44 695.93 97.17"/><polygon class="cls-2" points="700 128.85 700 118.7 691.98 126.71 700 128.85"/><polygon class="cls-2" points="521.08 42.01 496.8 56.06 521.06 70.07 521.08 42.01"/><polygon class="cls-2" points="534.89 79.66 561.96 72.41 542.13 52.56 534.89 79.66"/><polygon class="cls-2" points="596.71 83.53 568.66 83.51 582.7 107.8 596.71 83.53"/><polygon class="cls-2" points="619.87 120.32 612.62 93.25 592.76 113.08 619.87 120.32"/><polygon class="cls-2" points="637.28 137.17 661.57 123.12 637.3 109.11 637.28 137.17"/><polygon class="cls-2" points="680.4 163.67 687.65 136.57 660.58 143.82 680.4 163.67"/><polygon class="cls-2" points="700 169.76 700 152.43 690 169.75 700 169.76"/><polygon class="cls-2" points="582.48 149.17 582.5 121.12 558.21 135.16 582.48 149.17"/><polygon class="cls-2" points="596.31 158.77 623.38 151.51 603.55 131.66 596.31 158.77"/><polygon class="cls-2" points="644.12 186.91 658.13 162.64 630.07 162.62 644.12 186.91"/><polygon class="cls-2" points="674.03 172.35 654.18 192.18 681.28 199.42 674.03 172.35"/><polygon class="cls-2" points="698.7 216.27 700 215.52 700 188.96 698.72 188.22 698.7 216.27"/><polygon class="cls-2" points="483.27 135.54 483.29 107.48 459 121.53 483.27 135.54"/><polygon class="cls-2" points="497.09 145.13 524.16 137.88 504.34 118.03 497.09 145.13"/><polygon class="cls-2" points="558.91 149 530.86 148.98 544.9 173.27 558.91 149"/><polygon class="cls-2" points="582.07 185.79 574.82 158.72 554.97 178.54 582.07 185.79"/><polygon class="cls-2" points="599.48 202.63 623.77 188.59 599.5 174.58 599.48 202.63"/><polygon class="cls-2" points="642.61 229.14 649.85 202.04 622.78 209.29 642.61 229.14"/><polygon class="cls-2" points="680.26 235.24 666.22 210.95 652.2 235.22 680.26 235.24"/><polygon class="cls-2" points="544.68 214.64 544.7 186.59 520.41 200.63 544.68 214.64"/><polygon class="cls-2" points="558.51 224.23 585.58 216.98 565.75 197.13 558.51 224.23"/><polygon class="cls-2" points="606.32 252.37 620.33 228.1 592.28 228.09 606.32 252.37"/><polygon class="cls-2" points="636.23 237.82 616.38 257.65 643.49 264.89 636.23 237.82"/><polygon class="cls-2" points="660.9 281.74 685.19 267.69 660.92 253.68 660.9 281.74"/><polygon class="cls-2" points="445.47 201 445.49 172.95 421.2 186.99 445.47 201"/><polygon class="cls-2" points="459.3 210.6 486.37 203.34 466.54 183.49 459.3 210.6"/><polygon class="cls-2" points="507.11 238.74 521.12 214.47 493.06 214.45 507.11 238.74"/><polygon class="cls-2" points="537.02 224.18 517.17 244.01 544.27 251.25 537.02 224.18"/><polygon class="cls-2" points="561.68 268.1 585.97 254.06 561.7 240.05 561.68 268.1"/><polygon class="cls-2" points="604.81 294.61 612.05 267.5 584.98 274.76 604.81 294.61"/><polygon class="cls-2" points="642.46 300.7 628.42 276.42 614.41 300.69 642.46 300.7"/><polygon class="cls-2" points="249.97 131.78 249.99 103.72 225.7 117.77 249.97 131.78"/><polygon class="cls-2" points="263.8 141.37 290.87 134.12 271.04 114.27 263.8 141.37"/><polygon class="cls-2" points="311.61 169.51 325.62 145.24 297.56 145.22 311.61 169.51"/><polygon class="cls-2" points="348.77 182.03 341.52 154.96 321.67 174.78 348.77 182.03"/><polygon class="cls-2" points="366.21 170.82 366.19 198.88 390.48 184.83 366.21 170.82"/><polygon class="cls-2" points="409.31 225.38 416.56 198.28 389.49 205.53 409.31 225.38"/><polygon class="cls-2" points="418.91 231.46 446.96 231.48 432.92 207.19 418.91 231.46"/><polygon class="cls-2" points="487.03 238.97 459.93 231.73 467.18 258.8 487.03 238.97"/><polygon class="cls-2" points="67.21 0 42.59 0 54.91 21.3 67.21 0"/><polygon class="cls-2" points="84.82 6.75 64.97 26.58 92.07 33.82 84.82 6.75"/><polygon class="cls-2" points="109.5 22.61 109.49 50.67 133.77 36.63 109.5 22.61"/><polygon class="cls-2" points="152.61 77.18 159.85 50.07 132.78 57.33 152.61 77.18"/><polygon class="cls-2" points="162.21 83.25 190.26 83.27 176.22 58.98 162.21 83.25"/><polygon class="cls-2" points="210.48 110.59 230.33 90.76 203.23 83.52 210.48 110.59"/><polygon class="cls-2" points="150.76 118.14 150.78 90.09 126.49 104.13 150.76 118.14"/><polygon class="cls-2" points="164.59 127.74 191.65 120.48 171.83 100.63 164.59 127.74"/><polygon class="cls-2" points="226.41 131.6 198.35 131.59 212.39 155.87 226.41 131.6"/><polygon class="cls-2" points="249.56 168.39 242.31 141.32 222.46 161.15 249.56 168.39"/><polygon class="cls-2" points="266.97 185.24 291.26 171.2 266.99 157.18 266.97 185.24"/><polygon class="cls-2" points="319.69 217.82 347.75 217.84 333.71 193.56 319.69 217.82"/><polygon class="cls-2" points="367.97 245.16 387.82 225.33 360.71 218.09 367.97 245.16"/><polygon class="cls-2" points="10.29 8.98 10.27 37.03 34.56 22.99 10.29 8.98"/><polygon class="cls-2" points="53.4 63.54 60.64 36.44 33.57 43.69 53.4 63.54"/><polygon class="cls-2" points="77 45.35 62.99 69.62 91.05 69.64 77 45.35"/><polygon class="cls-2" points="131.12 77.13 104.01 69.88 111.27 96.95 131.12 77.13"/><polygon class="cls-2" points="310.98 247.5 303.73 220.43 283.87 240.25 310.98 247.5"/><polygon class="cls-2" points="328.41 236.29 328.39 264.34 352.68 250.3 328.41 236.29"/><polygon class="cls-2" points="371.51 290.85 378.76 263.75 351.69 271 371.51 290.85"/><polygon class="cls-2" points="381.11 296.93 409.17 296.95 395.12 272.66 381.11 296.93"/><polygon class="cls-2" points="429.38 324.26 449.24 304.44 422.13 297.19 429.38 324.26"/><polygon class="cls-2" points="3.06 62.48 17.11 86.77 31.12 62.5 3.06 62.48"/><polygon class="cls-2" points="47.02 72.22 27.17 92.05 54.28 99.29 47.02 72.22"/><polygon class="cls-2" points="71.69 116.14 95.98 102.09 71.71 88.08 71.69 116.14"/><polygon class="cls-2" points="114.81 142.64 122.06 115.54 94.99 122.79 114.81 142.64"/><polygon class="cls-2" points="152.47 148.74 138.42 124.45 124.41 148.72 152.47 148.74"/><polygon class="cls-2" points="172.68 176.06 192.53 156.23 165.43 148.99 172.68 176.06"/><polygon class="cls-2" points="272.3 277.21 279.54 250.11 252.47 257.36 272.3 277.21"/><polygon class="cls-2" points="281.9 283.29 309.95 283.31 295.91 259.02 281.9 283.29"/><polygon class="cls-2" points="330.17 310.63 350.02 290.8 322.92 283.56 330.17 310.63"/><polygon class="cls-2" points="22.84 101.9 0 108.02 0 113.39 15.6 129.01 22.84 101.9"/><polygon class="cls-2" points="53.25 135.1 39.21 110.82 25.2 135.09 53.25 135.1"/><polygon class="cls-2" points="73.47 162.42 93.32 142.59 66.22 135.35 73.47 162.42"/><polygon class="cls-2" points="236.01 300.45 250.03 276.18 221.97 276.16 236.01 300.45"/><polygon class="cls-2" points="273.18 312.96 265.93 285.89 246.08 305.72 273.18 312.96"/><polygon class="cls-2" points="290.59 329.81 314.88 315.77 290.61 301.75 290.59 329.81"/><polygon class="cls-2" points="333.72 356.32 340.96 329.21 313.89 336.47 333.72 356.32"/><polygon class="cls-2" points="343.31 362.4 371.37 362.42 357.33 338.13 343.31 362.4"/><polygon class="cls-2" points="391.59 389.73 411.44 369.9 384.33 362.66 391.59 389.73"/><polygon class="cls-2" points="191.38 316.18 215.67 302.13 191.4 288.12 191.38 316.18"/><polygon class="cls-2" points="234.5 342.68 241.75 315.58 214.68 322.83 234.5 342.68"/><polygon class="cls-2" points="244.1 348.76 272.15 348.78 258.11 324.49 244.1 348.76"/><polygon class="cls-2" points="292.37 376.09 312.23 356.27 285.12 349.02 292.37 376.09"/><polygon class="cls-2" points="1.41 176.28 0 178.72 0 200.56 15.45 200.57 1.41 176.28"/><polygon class="cls-2" points="150.41 337.77 177.47 330.52 157.65 310.67 150.41 337.77"/><polygon class="cls-2" points="198.22 365.91 212.23 341.64 184.17 341.63 198.22 365.91"/><polygon class="cls-2" points="228.13 351.36 208.28 371.19 235.38 378.43 228.13 351.36"/><polygon class="cls-2" points="252.79 395.28 277.08 381.24 252.81 367.22 252.79 395.28"/><polygon class="cls-2" points="295.92 421.79 303.16 394.68 276.09 401.93 295.92 421.79"/><polygon class="cls-2" points="319.53 403.59 305.52 427.86 333.57 427.88 319.53 403.59"/><polygon class="cls-2" points="353.79 455.2 373.64 435.37 346.54 428.13 353.79 455.2"/><polygon class="cls-2" points="0 221.26 0 244.81 20.38 233.03 0 221.26"/><polygon class="cls-2" points="46.46 246.47 19.39 253.73 39.22 273.58 46.46 246.47"/><polygon class="cls-2" points="37.38 286.49 13.1 300.53 37.36 314.55 37.38 286.49"/><polygon class="cls-2" points="51.19 324.14 78.26 316.88 58.44 297.03 51.19 324.14"/><polygon class="cls-2" points="290.27 191.9 310.1 211.75 317.34 184.64 290.27 191.9"/><polygon class="cls-2" points="212.19 169.19 187.91 183.23 212.17 197.25 212.19 169.19"/><polygon class="cls-2" points="253.07 199.59 233.25 179.74 226 206.84 253.07 199.59"/><polygon class="cls-2" points="287.82 210.71 259.77 210.69 273.81 234.98 287.82 210.71"/><polygon class="cls-2" points="112.98 155.55 88.69 169.6 112.96 183.61 112.98 155.55"/><polygon class="cls-2" points="153.86 185.95 134.03 166.1 126.79 193.2 153.86 185.95"/><polygon class="cls-2" points="188.61 197.07 160.55 197.05 174.6 221.34 188.61 197.07"/><polygon class="cls-2" points="184.66 226.62 211.76 233.86 204.51 206.79 184.66 226.62"/><polygon class="cls-2" points="253.46 236.66 229.19 222.65 229.18 250.71 253.46 236.66"/><polygon class="cls-2" points="150.11 248.7 174.38 262.71 174.4 234.66 150.11 248.7"/><polygon class="cls-2" points="215.27 265.05 195.45 245.2 188.2 272.31 215.27 265.05"/><polygon class="cls-2" points="16.48 164.76 9.22 137.69 0 146.9 0 160.35 16.48 164.76"/><polygon class="cls-2" points="58.18 167.56 33.91 153.55 33.89 181.6 58.18 167.56"/><polygon class="cls-2" points="57.19 188.26 77.01 208.11 84.26 181.01 57.19 188.26"/><polygon class="cls-2" points="86.61 214.19 114.67 214.21 100.62 189.92 86.61 214.19"/><polygon class="cls-2" points="154.74 221.7 127.63 214.46 134.88 241.52 154.74 221.7"/><polygon class="cls-2" points="75.18 221.02 50.89 235.06 75.16 249.08 75.18 221.02"/><polygon class="cls-2" points="116.06 251.42 96.23 231.57 88.99 258.67 116.06 251.42"/><polygon class="cls-2" points="122.75 262.52 136.8 286.81 150.81 262.54 122.75 262.52"/><polygon class="cls-2" points="173.97 299.33 166.71 272.26 146.86 292.08 173.97 299.33"/><polygon class="cls-2" points="28.42 200.82 35.67 227.89 55.52 208.06 28.42 200.82"/><polygon class="cls-2" points="112.31 314.17 136.58 328.18 136.6 300.13 112.31 314.17"/><polygon class="cls-2" points="48.81 279.66 76.87 279.68 62.83 255.39 48.81 279.66"/><polygon class="cls-2" points="116.94 287.17 89.83 279.92 97.09 306.99 116.94 287.17"/><polygon class="cls-2" points="84.96 327.99 99 352.28 113.01 328.01 84.96 327.99"/><polygon class="cls-2" points="136.17 364.79 128.91 337.73 109.06 357.55 136.17 364.79"/><polygon class="cls-2" points="153.58 381.64 177.87 367.6 153.6 353.59 153.58 381.64"/><polygon class="cls-2" points="176.88 388.3 196.7 408.15 203.95 381.05 176.88 388.3"/><polygon class="cls-2" points="234.36 414.25 220.31 389.96 206.3 414.23 234.36 414.25"/><polygon class="cls-2" points="254.57 441.56 274.43 421.74 247.32 414.49 254.57 441.56"/><polygon class="cls-2" points="0 268.79 0 291.23 17.73 273.53 0 268.79"/><polygon class="cls-2" points="98.78 393.65 98.8 365.59 74.51 379.64 98.78 393.65"/><polygon class="cls-2" points="112.61 403.24 139.68 395.99 119.85 376.14 112.61 403.24"/><polygon class="cls-2" points="146.37 407.09 160.42 431.38 174.43 407.11 146.37 407.09"/><polygon class="cls-2" points="170.48 436.65 197.59 443.9 190.33 416.83 170.48 436.65"/><polygon class="cls-2" points="215 460.75 239.29 446.7 215.02 432.69 215 460.75"/><polygon class="cls-2" points="335.84 500.84 308.74 493.6 315.99 520.67 335.84 500.84"/><polygon class="cls-2" points="8.66 311.94 0 314.26 0 337.63 1.42 339.05 8.66 311.94"/><polygon class="cls-2" points="25.03 320.86 11.02 345.12 39.07 345.14 25.03 320.86"/><polygon class="cls-2" points="59.29 372.46 79.14 352.63 52.04 345.39 59.29 372.46"/><polygon class="cls-2" points="13.39 389.61 40.46 382.35 20.64 362.5 13.39 389.61"/><polygon class="cls-2" points="182.52 455.43 168.5 479.69 196.56 479.71 182.52 455.43"/><polygon class="cls-2" points="506.89 280.11 506.9 252.05 482.62 266.1 506.89 280.11"/><polygon class="cls-2" points="520.71 289.7 547.78 282.45 527.96 262.6 520.71 289.7"/><polygon class="cls-2" points="568.52 317.84 582.53 293.57 554.48 293.55 568.52 317.84"/><polygon class="cls-2" points="598.44 303.29 578.58 323.11 605.69 330.36 598.44 303.29"/><polygon class="cls-2" points="623.12 319.15 623.1 347.21 647.39 333.16 623.12 319.15"/><polygon class="cls-2" points="407.67 266.47 407.69 238.42 383.4 252.46 407.67 266.47"/><polygon class="cls-2" points="421.5 276.06 448.57 268.81 428.74 248.96 421.5 276.06"/><polygon class="cls-2" points="469.31 304.2 483.32 279.93 455.26 279.92 469.31 304.2"/><polygon class="cls-2" points="479.37 309.48 506.48 316.72 499.22 289.65 479.37 309.48"/><polygon class="cls-2" points="523.89 333.57 548.17 319.52 523.91 305.51 523.89 333.57"/><polygon class="cls-2" points="567.01 360.08 574.25 332.97 547.18 340.23 567.01 360.08"/><polygon class="cls-2" points="604.66 366.17 590.62 341.88 576.61 366.15 604.66 366.17"/><polygon class="cls-2" points="469.09 345.58 469.11 317.52 444.82 331.56 469.09 345.58"/><polygon class="cls-2" points="482.92 355.17 509.98 347.92 490.16 328.06 482.92 355.17"/><polygon class="cls-2" points="530.72 383.31 544.74 359.04 516.68 359.02 530.72 383.31"/><polygon class="cls-2" points="540.79 388.58 567.89 395.82 560.64 368.76 540.79 388.58"/><polygon class="cls-2" points="585.3 412.67 609.59 398.63 585.32 384.62 585.3 412.67"/><polygon class="cls-2" points="369.87 331.94 369.89 303.88 345.6 317.93 369.87 331.94"/><polygon class="cls-2" points="383.7 341.53 410.77 334.28 390.94 314.43 383.7 341.53"/><polygon class="cls-2" points="431.51 369.67 445.52 345.4 417.47 345.38 431.51 369.67"/><polygon class="cls-2" points="441.57 374.94 468.68 382.19 461.42 355.12 441.57 374.94"/><polygon class="cls-2" points="486.09 399.04 510.38 384.99 486.11 370.98 486.09 399.04"/><polygon class="cls-2" points="529.21 425.54 536.46 398.44 509.39 405.69 529.21 425.54"/><polygon class="cls-2" points="552.82 407.35 538.81 431.62 566.87 431.64 552.82 407.35"/><polygon class="cls-2" points="431.29 411.04 431.31 382.99 407.02 397.03 431.29 411.04"/><polygon class="cls-2" points="445.12 420.64 472.19 413.38 452.36 393.53 445.12 420.64"/><polygon class="cls-2" points="478.88 424.49 492.93 448.77 506.94 424.51 478.88 424.49"/><polygon class="cls-2" points="502.99 454.05 530.09 461.29 522.84 434.22 502.99 454.05"/><polygon class="cls-2" points="547.51 478.14 571.79 464.1 547.52 450.08 547.51 478.14"/><polygon class="cls-2" points="332.09 369.35 307.81 383.39 332.08 397.41 332.09 369.35"/><polygon class="cls-2" points="345.9 407 372.97 399.75 353.15 379.89 345.9 407"/><polygon class="cls-2" points="407.72 410.87 379.67 410.85 393.71 435.14 407.72 410.87"/><polygon class="cls-2" points="423.63 420.59 403.77 440.41 430.88 447.65 423.63 420.59"/><polygon class="cls-2" points="472.58 450.46 448.31 436.45 448.29 464.5 472.58 450.46"/><polygon class="cls-2" points="471.59 471.16 491.42 491.01 498.66 463.91 471.59 471.16"/><polygon class="cls-2" points="515.02 472.82 501.01 497.09 529.07 497.11 515.02 472.82"/><polygon class="cls-2" points="393.49 476.51 393.51 448.45 369.22 462.5 393.49 476.51"/><polygon class="cls-2" points="414.56 459 407.32 486.1 434.39 478.85 414.56 459"/><polygon class="cls-2" points="441.08 489.95 455.13 514.24 469.14 489.97 441.08 489.95"/><polygon class="cls-2" points="485.04 499.69 465.19 519.52 492.3 526.76 485.04 499.69"/><polygon class="cls-2" points="509.71 543.61 534 529.56 509.73 515.55 509.71 543.61"/><polygon class="cls-2" points="294.3 434.82 270.01 448.86 294.28 462.87 294.3 434.82"/><polygon class="cls-2" points="315.35 445.36 308.11 472.47 335.18 465.21 315.35 445.36"/><polygon class="cls-2" points="341.87 476.32 355.92 500.61 369.93 476.34 341.87 476.32"/><polygon class="cls-2" points="385.83 486.05 365.98 505.88 393.08 513.12 385.83 486.05"/><polygon class="cls-2" points="410.51 501.92 410.5 529.97 434.78 515.93 410.51 501.92"/><polygon class="cls-2" points="433.79 536.63 453.62 556.48 460.86 529.37 433.79 536.63"/><polygon class="cls-2" points="477.23 538.29 463.22 562.56 491.27 562.58 477.23 538.29"/><polygon class="cls-2" points="355.69 541.98 355.71 513.92 331.43 527.97 355.69 541.98"/><polygon class="cls-2" points="376.77 524.47 369.52 551.57 396.59 544.32 376.77 524.47"/><polygon class="cls-2" points="403.29 555.42 417.33 579.71 431.34 555.44 403.29 555.42"/><polygon class="cls-2" points="447.25 565.16 427.39 584.98 454.5 592.23 447.25 565.16"/><polygon class="cls-2" points="471.93 581.02 471.91 609.08 496.2 595.03 471.93 581.02"/><polygon class="cls-2" points="700 260.77 700 237.29 693.22 235.48 700 260.77"/><polygon class="cls-2" points="700 304.22 700 284.16 684.2 288.39 700 304.22"/><polygon class="cls-2" points="700 347.96 700 322.42 677.9 335.2 700 347.96"/><polygon class="cls-2" points="662.68 328.02 682.53 308.19 655.43 300.95 662.68 328.02"/><polygon class="cls-2" points="673.47 346.61 646.4 353.86 666.23 373.71 673.47 346.61"/><polygon class="cls-2" points="675.82 379.79 700 379.81 700 373.1 689.84 355.52 675.82 379.79"/><polygon class="cls-2" points="664.39 386.62 640.1 400.67 664.37 414.68 664.39 386.62"/><polygon class="cls-2" points="678.2 424.27 700 418.43 700 411.74 685.44 397.17 678.2 424.27"/><polygon class="cls-2" points="624.88 393.49 644.73 373.66 617.63 366.42 624.88 393.49"/><polygon class="cls-2" points="628.43 439.18 635.67 412.07 608.6 419.33 628.43 439.18"/><polygon class="cls-2" points="638.02 445.26 666.08 445.28 652.04 420.99 638.02 445.26"/><polygon class="cls-2" points="686.3 472.59 700 458.91 700 451.12 679.05 445.52 686.3 472.59"/><polygon class="cls-2" points="579.83 431.89 587.08 458.96 606.94 439.13 579.83 431.89"/><polygon class="cls-2" points="664.02 634.31 691.09 627.06 671.26 607.21 664.02 634.31"/><polygon class="cls-2" points="700 641.99 700 638.16 697.79 638.16 700 641.99"/><polygon class="cls-2" points="533.01 550.26 552.83 570.12 560.08 543.01 533.01 550.26"/><polygon class="cls-2" points="551 583.02 526.71 597.07 550.98 611.08 551 583.02"/><polygon class="cls-2" points="572.05 593.57 564.81 620.67 591.88 613.42 572.05 593.57"/><polygon class="cls-2" points="626.59 452.09 602.31 466.13 626.58 480.15 626.59 452.09"/><polygon class="cls-2" points="640.4 489.74 667.47 482.49 647.65 462.63 640.4 489.74"/><path class="cls-2" d="M697.9,493.61l-23.73,0,14,24.29L700,497.46v-2.68A2.45,2.45,0,0,0,697.9,493.61Z"/><polygon class="cls-2" points="663.72 545.24 687.99 559.25 688.01 531.19 663.72 545.24"/><polygon class="cls-2" points="597.87 477.54 570.8 484.8 590.63 504.65 597.87 477.54"/><polygon class="cls-2" points="600.23 510.73 628.28 510.74 614.24 486.46 600.23 510.73"/><polygon class="cls-2" points="668.35 518.23 641.25 510.99 648.5 538.06 668.35 518.23"/><polygon class="cls-2" points="564.51 531.6 588.78 545.61 588.8 517.56 564.51 531.6"/><polygon class="cls-2" points="602.61 555.21 629.67 547.95 609.85 528.1 602.61 555.21"/><polygon class="cls-2" points="664.43 559.08 636.37 559.06 650.41 583.35 664.43 559.08"/><polygon class="cls-2" points="660.48 588.62 687.58 595.86 680.33 568.79 660.48 588.62"/><polygon class="cls-2" points="569.14 504.6 542.03 497.35 549.29 524.42 569.14 504.6"/><polygon class="cls-2" points="625.92 610.71 650.2 624.72 650.21 596.66 625.92 610.71"/><polygon class="cls-2" points="562.43 576.19 590.49 576.21 576.44 551.92 562.43 576.19"/><polygon class="cls-2" points="603.45 576.46 610.7 603.53 630.55 583.7 603.45 576.46"/><polygon class="cls-2" points="626.63 624.54 598.57 624.52 612.62 648.81 626.63 624.54"/><polygon class="cls-2" points="531.34 570.07 504.24 562.82 511.49 589.89 531.34 570.07"/></g></svg>