<svg id="e6a1b5f7-6fd4-412e-9ff4-8dd2cd298353" width="700" height="633" data-name="Layer 1" xmlns="http://www.w3.org/2000/svg" viewBox="0 0 700.01 633.82"><title>pattern_getintouch</title><path d="M12.69,11.08,15.68,0H0V15l6.55.44A6,6,0,0,0,12.69,11.08Z" style="fill:#fed93e"/><path d="M27.31,2.61A5.92,5.92,0,0,0,33.89,0H17.63Z" style="fill:#fed93e"/><path d="M91.85,0H82.56l4,1.09A5.93,5.93,0,0,0,91.85,0Z" style="fill:#fed93e"/><path d="M67.37,14A5.94,5.94,0,0,0,74,9.63L76.61,0H58.48L53.82,11.87Z" style="fill:#fed93e"/><path d="M20.57,20.49,15.2,34.17,29.71,36.4a6,6,0,0,0,6.23-3.24l7.6-15.31-17-1.12A5.94,5.94,0,0,0,20.57,20.49Z" style="fill:#fed93e"/><path d="M7.22,50.33l8-16.13L0,33.2V53.75l2.24-.13A6,6,0,0,0,7.22,50.33Z" style="fill:#fed93e"/><path d="M6.66,82.33,9.49,71.84,0,69.28V86.66A6,6,0,0,0,6.66,82.33Z" style="fill:#fed93e"/><path d="M97,29.44l2.61-9.63L90,17.21a5.94,5.94,0,0,0-7.29,4.18,5.66,5.66,0,0,0-.16.82l-1,8,7.34,3.17a6,6,0,0,0,7.86-3.21A6.28,6.28,0,0,0,97,29.44Z" style="fill:#fed93e"/><path d="M117.76,19.2l5-12.76L109.22,4.35a6,6,0,0,0-6.65,4.33l-3,11.1,11.09,3A6,6,0,0,0,117.76,19.2Z" style="fill:#fed93e"/><path d="M42.41,62.57,45.53,51,34,47.92A6,6,0,0,0,27.13,51L19.77,65.86,36.28,67A6,6,0,0,0,42.41,62.57Z" style="fill:#fed93e"/><path d="M63.91,51l7.37-14.84L54.75,35.08a6,6,0,0,0-6.13,4.38L45.51,51,57,54.1A5.94,5.94,0,0,0,63.91,51Z" style="fill:#fed93e"/><path d="M150.09,1.58A6,6,0,0,0,154.52,0H133.27l-.22.46Z" style="fill:#fed93e"/><path d="M212.15,0h-7.76l2.93.79A5.93,5.93,0,0,0,212.15,0Z" style="fill:#fed93e"/><path d="M109.32,40.36,106.72,50l9.6,2.6a6,6,0,0,0,7.32-4.29,5.57,5.57,0,0,0,.14-.71l1-8-7.35-3.16a6,6,0,0,0-7.86,3.2A5.55,5.55,0,0,0,109.32,40.36Z" style="fill:#fed93e"/><path d="M88.56,50.59l-5,12.77L97.1,65.45a6,6,0,0,0,6.64-4.33l3-11.1-11.1-3A6,6,0,0,0,88.56,50.59Z" style="fill:#fed93e"/><path d="M179.18,18.78l7.37-14.84L170,2.85a6,6,0,0,0-6.13,4.38l-3.12,11.54,11.52,3.11A6,6,0,0,0,179.18,18.78Z" style="fill:#fed93e"/><path d="M157.69,30.34,160.8,18.8l-11.53-3.11a6,6,0,0,0-6.87,3.1L135,33.63l16.52,1.09A5.94,5.94,0,0,0,157.69,30.34Z" style="fill:#fed93e"/><path d="M50.29,72,44.93,85.66l14.51,2.23a6,6,0,0,0,6.23-3.23l7.6-15.32-17-1.12A6,6,0,0,0,50.29,72Z" style="fill:#fed93e"/><path d="M36.94,101.82l8-16.13L27,84.51a6,6,0,0,0-5.35,2.65L8.88,106.47,32,105.11A5.92,5.92,0,0,0,36.94,101.82Z" style="fill:#fed93e"/><path d="M15.34,147.34l3.28-12.12L6.54,132A6,6,0,0,0,0,134.41H0V152.3l10-.58A6,6,0,0,0,15.34,147.34Z" style="fill:#fed93e"/><path d="M36.38,133.83l2.84-10.5-10.5-2.83a5.94,5.94,0,0,0-7.29,4.18h0l-2.83,10.5L29.1,138A5.94,5.94,0,0,0,36.38,133.83Z" style="fill:#fed93e"/><path d="M272.16,0H261.24l5.3,1.43A5.9,5.9,0,0,0,272.16,0Z" style="fill:#fed93e"/><path d="M249,10.62a6,6,0,0,0,6.79-5.09,6.11,6.11,0,0,0,.05-1.13L255.57,0H240.91l-3.47,8.84Z" style="fill:#fed93e"/><path d="M112.27,73.72l-1,8,7.35,3.16a6,6,0,0,0,7.85-3.22q.14-.34.24-.69l2.61-9.63-9.61-2.6a6,6,0,0,0-7.31,4.31C112.35,73.27,112.3,73.5,112.27,73.72Z" style="fill:#fed93e"/><path d="M147.49,70.69l5-12.76-13.56-2.09a6,6,0,0,0-6.64,4.33l-3,11.1,11.09,3A5.93,5.93,0,0,0,147.49,70.69Z" style="fill:#fed93e"/><path d="M56.86,102.5l-7.37,14.85L66,118.44a5.94,5.94,0,0,0,6.13-4.38l3.12-11.54L63.74,99.41A5.94,5.94,0,0,0,56.86,102.5Z" style="fill:#fed93e"/><path d="M93.64,102.5,101,87.65,84.48,86.57A6,6,0,0,0,78.35,91l-3.11,11.53,11.53,3.11A5.92,5.92,0,0,0,93.64,102.5Z" style="fill:#fed93e"/><path d="M170.37,36.63,162.77,52l17,1.12a6,6,0,0,0,5.93-3.76l5.36-13.68L176.6,33.4A5.93,5.93,0,0,0,170.37,36.63Z" style="fill:#fed93e"/><path d="M214.38,34.13l12.78-19.31-23.09,1.36a5.94,5.94,0,0,0-5,3.29l-8,16.13L209,36.78A6,6,0,0,0,214.38,34.13Z" style="fill:#fed93e"/><path d="M265.74,38.37l12.33-18.61-22.25,1.3a6,6,0,0,0-5.39,4.38l-3.28,12.12,12.08,3.27A5.94,5.94,0,0,0,265.74,38.37Z" style="fill:#fed93e"/><path d="M237.05,52.28a5.94,5.94,0,0,0,7.29-4.18h0l2.83-10.5-10.49-2.83A6,6,0,0,0,229.39,39l-2.83,10.5Z" style="fill:#fed93e"/><path d="M7.31,185.46l3-11.12L0,171.55v18.13l.66.1A6,6,0,0,0,7.31,185.46Z" style="fill:#fed93e"/><path d="M24.07,174.81l4.26-10.87-11.54-1.78a6,6,0,0,0-6.74,5.15,5.48,5.48,0,0,0-.05,1.07l.34,5.93,5,3.29a6,6,0,0,0,8.27-1.9A5.76,5.76,0,0,0,24.07,174.81Z" style="fill:#fed93e"/><path d="M139.05,91.85l-2.6,9.62,9.6,2.6a6,6,0,0,0,7.32-4.29,5.57,5.57,0,0,0,.14-.71l1-8-7.35-3.16a6,6,0,0,0-7.86,3.21A6.28,6.28,0,0,0,139.05,91.85Z" style="fill:#fed93e"/><path d="M118.28,102.08l-5,12.77,13.55,2.09a6,6,0,0,0,6.64-4.33l3-11.1-11.1-3A6,6,0,0,0,118.28,102.08Z" style="fill:#fed93e"/><path d="M193.63,58.72l-3.12,11.54L202,73.37a5.94,5.94,0,0,0,6.88-3.09l7.37-14.85-16.52-1.09A6,6,0,0,0,193.63,58.72Z" style="fill:#fed93e"/><path d="M172.13,70.28l-7.36,14.84,16.52,1.09a5.94,5.94,0,0,0,6.13-4.38l3.11-11.54L179,67.18A6,6,0,0,0,172.13,70.28Z" style="fill:#fed93e"/><path d="M80,123.47l-5.36,13.68,14.51,2.23a6,6,0,0,0,6.23-3.23l7.6-15.32-17-1.12A6,6,0,0,0,80,123.47Z" style="fill:#fed93e"/><path d="M51.39,138.65,38.61,158l23.09-1.4a6,6,0,0,0,5-3.29l8-16.13-18-1.18A6,6,0,0,0,51.39,138.65Z" style="fill:#fed93e"/><path d="M2.13,223.27l5-12.78L0,209.39V226A5.91,5.91,0,0,0,2.13,223.27Z" style="fill:#fed93e"/><polygon points="0 245.54 0 255.08 6.57 245.16 0 245.54" style="fill:#fed93e"/><path d="M29.76,185.9,17.43,204.51l22.25-1.3a6,6,0,0,0,5.39-4.38l3.28-12.12-12.08-3.27A5.94,5.94,0,0,0,29.76,185.9Z" style="fill:#fed93e"/><path d="M51.16,176.18l-2.83,10.5,10.49,2.83a6,6,0,0,0,7.29-4.19l2.83-10.5L58.45,172a5.94,5.94,0,0,0-7.29,4.18Z" style="fill:#fed93e"/><path d="M303.35,49.36l5-12.78-13.54-2.09a6,6,0,0,0-6.65,4.32l-3,11.12,11.08,3A5.94,5.94,0,0,0,303.35,49.36Z" style="fill:#fed93e"/><path d="M271.43,49.46l-4.26,10.87,11.54,1.78A6,6,0,0,0,285.5,57a6.11,6.11,0,0,0,.05-1.13L285.21,50l-5-3.28A5.94,5.94,0,0,0,272,48.41,5.83,5.83,0,0,0,271.43,49.46Z" style="fill:#fed93e"/><path d="M142,125.21l-1,8,7.35,3.16a6,6,0,0,0,7.85-3.22q.13-.35.24-.69l2.6-9.62-9.6-2.6a6,6,0,0,0-7.31,4.31C142.08,124.77,142,125,142,125.21Z" style="fill:#fed93e"/><path d="M159,122.76l11.1,3a5.93,5.93,0,0,0,7.08-3.56l5-12.77-13.55-2.09a6,6,0,0,0-6.64,4.33Z" style="fill:#fed93e"/><path d="M86.59,154l-7.37,14.85,16.52,1.09a5.94,5.94,0,0,0,6.13-4.38L105,154l-11.53-3.1A6,6,0,0,0,86.59,154Z" style="fill:#fed93e"/><path d="M108.08,142.44,105,154l11.53,3.11a6,6,0,0,0,6.87-3.1l7.36-14.84-16.52-1.09A5.94,5.94,0,0,0,108.08,142.44Z" style="fill:#fed93e"/><path d="M200.1,88.12l-7.6,15.32,17.05,1.12a6,6,0,0,0,5.93-3.76l5.36-13.68-14.51-2.23A6,6,0,0,0,200.1,88.12Z" style="fill:#fed93e"/><path d="M228.83,71l-8,16.13,17.94,1.18a6,6,0,0,0,5.35-2.65L256.9,66.35l-23.1,1.32A6,6,0,0,0,228.83,71Z" style="fill:#fed93e"/><path d="M285.55,72.55a6,6,0,0,0-5.39,4.38l-3.28,12.12L289,92.32a5.94,5.94,0,0,0,6.51-2.46l12.32-18.61Z" style="fill:#fed93e"/><path d="M259.11,90.45l-2.83,10.49,10.5,2.83a5.94,5.94,0,0,0,7.29-4.18h0l2.83-10.5-10.5-2.83A6,6,0,0,0,259.11,90.45Z" style="fill:#fed93e"/><path d="M30.39,241.27A5.94,5.94,0,0,0,37,237l3-11.12-11.08-3a5.94,5.94,0,0,0-7.09,3.56l-5,12.78Z" style="fill:#fed93e"/><path d="M39.68,219.88,40,225.8l5,3.29a6,6,0,0,0,8.3-1.78,6.43,6.43,0,0,0,.52-1l4.26-10.87-11.54-1.78a6,6,0,0,0-6.8,5.07A5.61,5.61,0,0,0,39.68,219.88Z" style="fill:#fed93e"/><path d="M168.78,143.34,166.17,153l9.61,2.6a6,6,0,0,0,7.31-4.3,5.78,5.78,0,0,0,.14-.7l1-8-7.35-3.17a6,6,0,0,0-7.86,3.21C168.93,142.87,168.85,143.1,168.78,143.34Z" style="fill:#fed93e"/><path d="M148,153.58l-5,12.76,13.56,2.09a6,6,0,0,0,6.64-4.33l3-11.1-11.09-3A5.93,5.93,0,0,0,148,153.58Z" style="fill:#fed93e"/><path d="M223.36,110.21l-3.12,11.54,11.52,3.11a5.94,5.94,0,0,0,6.88-3.09L246,106.92l-16.52-1.09A6,6,0,0,0,223.36,110.21Z" style="fill:#fed93e"/><path d="M201.86,121.77l-7.37,14.85L211,137.7a5.94,5.94,0,0,0,6.13-4.38l3.11-11.53-11.53-3.11A5.93,5.93,0,0,0,201.86,121.77Z" style="fill:#fed93e"/><path d="M109.75,175l-5.36,13.68,14.51,2.23a5.93,5.93,0,0,0,6.23-3.23l7.59-15.32-17-1.12A6,6,0,0,0,109.75,175Z" style="fill:#fed93e"/><path d="M91.42,208.09a5.94,5.94,0,0,0,5-3.29l8-16.13-17.93-1.18a6,6,0,0,0-5.35,2.65l-12.8,19.31Z" style="fill:#fed93e"/><path d="M31.86,274.76l5-12.77-13.53-2.1a6,6,0,0,0-6.65,4.33l-3,11.11,11.08,3A6,6,0,0,0,31.86,274.76Z" style="fill:#fed93e"/><path d="M14.06,281.29l-.35-5.93-5-3.28a5.94,5.94,0,0,0-8.22,1.73,6.12,6.12,0,0,0-.49.91V286.4l7.22,1.11A6,6,0,0,0,14,282.42,6.11,6.11,0,0,0,14.06,281.29Z" style="fill:#fed93e"/><path d="M24,315.26l12.3-18.61L14.05,298a6,6,0,0,0-5.39,4.39L5.39,314.45l12.07,3.27A5.93,5.93,0,0,0,24,315.26Z" style="fill:#fed93e"/><path d="M2.57,325l2.84-10.49L0,313v15.43A5.91,5.91,0,0,0,2.57,325Z" style="fill:#fed93e"/><path d="M59.49,237.39,47.16,256l22.25-1.31a5.94,5.94,0,0,0,5.39-4.38l3.28-12.12L66,234.93A5.94,5.94,0,0,0,59.49,237.39Z" style="fill:#fed93e"/><path d="M80.89,227.67l-2.83,10.5L88.55,241a6,6,0,0,0,7.29-4.19l2.83-10.5-10.49-2.83a5.94,5.94,0,0,0-7.29,4.18Z" style="fill:#fed93e"/><path d="M333.08,100.85l5-12.78L324.57,86a6,6,0,0,0-6.65,4.33l-3,11.11,11.08,3A6,6,0,0,0,333.08,100.85Z" style="fill:#fed93e"/><path d="M301.16,101l-4.27,10.87,11.55,1.78a6,6,0,0,0,6.79-5.09,6.11,6.11,0,0,0,0-1.13l-.34-5.93-5-3.28a5.93,5.93,0,0,0-8.21,1.69A5.66,5.66,0,0,0,301.16,101Z" style="fill:#fed93e"/><path d="M171.72,176.7l-1,8,7.35,3.16a6,6,0,0,0,7.85-3.22q.14-.34.24-.69l2.6-9.62-9.6-2.6a6,6,0,0,0-7.31,4.31C171.8,176.26,171.75,176.48,171.72,176.7Z" style="fill:#fed93e"/><path d="M191.76,163.15l-3,11.1,11.1,3a6,6,0,0,0,7.08-3.57l5-12.77-13.55-2.09A6,6,0,0,0,191.76,163.15Z" style="fill:#fed93e"/><path d="M116.32,205.49,109,220.33l16.52,1.09A6,6,0,0,0,131.6,217l3.12-11.54-11.52-3.11A6,6,0,0,0,116.32,205.49Z" style="fill:#fed93e"/><path d="M137.81,193.93l-3.11,11.54,11.53,3.11a5.94,5.94,0,0,0,6.87-3.1l7.36-14.84-16.52-1.09A5.94,5.94,0,0,0,137.81,193.93Z" style="fill:#fed93e"/><path d="M229.83,139.61l-7.6,15.32,17.05,1.12a6,6,0,0,0,5.93-3.76l5.36-13.68-14.51-2.23A6,6,0,0,0,229.83,139.61Z" style="fill:#fed93e"/><path d="M263.53,119.16a5.92,5.92,0,0,0-5,3.29l-8,16.13,17.93,1.18a6,6,0,0,0,5.35-2.65L286.6,117.8Z" style="fill:#fed93e"/><path d="M309.89,128.43l-3.28,12.11,12.08,3.27a5.94,5.94,0,0,0,6.51-2.46l12.32-18.61L315.28,124A6,6,0,0,0,309.89,128.43Z" style="fill:#fed93e"/><path d="M288.84,141.94,286,152.43l10.5,2.83a5.94,5.94,0,0,0,7.29-4.18h0l2.83-10.49-10.5-2.84A6,6,0,0,0,288.84,141.94Z" style="fill:#fed93e"/><path d="M51.6,277.89l-5,12.78,13.54,2.09a5.94,5.94,0,0,0,6.64-4.32l3-11.11-11.08-3A6,6,0,0,0,51.6,277.89Z" style="fill:#fed93e"/><path d="M83.53,277.79l4.26-10.87-11.54-1.77a5.94,5.94,0,0,0-6.78,5,6.65,6.65,0,0,0-.06,1.26l.34,5.92,5,3.29A6,6,0,0,0,83,278.75,6.26,6.26,0,0,0,83.53,277.79Z" style="fill:#fed93e"/><path d="M198.51,194.83l-2.61,9.63,9.61,2.6a5.94,5.94,0,0,0,7.29-4.18,5.66,5.66,0,0,0,.16-.82l1-8-7.34-3.17a6,6,0,0,0-7.86,3.21A6.28,6.28,0,0,0,198.51,194.83Z" style="fill:#fed93e"/><path d="M177.74,205.07l-5,12.76,13.55,2.09a6,6,0,0,0,6.65-4.33l3-11.1-11.1-3A6,6,0,0,0,177.74,205.07Z" style="fill:#fed93e"/><path d="M253.09,161.7,250,173.24l11.52,3.11a5.94,5.94,0,0,0,6.87-3.09l7.37-14.85-16.51-1.09A6,6,0,0,0,253.09,161.7Z" style="fill:#fed93e"/><path d="M231.58,173.27l-7.36,14.84,16.53,1.08a6,6,0,0,0,6.13-4.38L250,173.28l-11.53-3.11A6,6,0,0,0,231.58,173.27Z" style="fill:#fed93e"/><path d="M139.48,226.45l-5.37,13.68,14.52,2.23a5.93,5.93,0,0,0,6.23-3.23l7.59-15.32-17-1.12A5.94,5.94,0,0,0,139.48,226.45Z" style="fill:#fed93e"/><path d="M110.85,241.63,98.07,260.94l23.08-1.36a5.94,5.94,0,0,0,5-3.29l8-16.12-18-1.17A6,6,0,0,0,110.85,241.63Z" style="fill:#fed93e"/><path d="M61.59,326.25l5-12.77-13.54-2.09a5.92,5.92,0,0,0-6.64,4.32l-3,11.11,11.08,3A5.94,5.94,0,0,0,61.59,326.25Z" style="fill:#fed93e"/><path d="M29.67,326.35,25.4,337.23,36.94,339a5.94,5.94,0,0,0,6.78-5,6.65,6.65,0,0,0,.06-1.26l-.34-5.93-4.95-3.28a6,6,0,0,0-8.3,1.78A5.92,5.92,0,0,0,29.67,326.35Z" style="fill:#fed93e"/><path d="M2.34,362.51,15.12,343.2,0,344.09v20.48A6,6,0,0,0,2.34,362.51Z" style="fill:#fed93e"/><path d="M53.7,366.76,66,348.14l-22.25,1.31a5.94,5.94,0,0,0-5.39,4.38l-3.28,12.11,12.08,3.27A6,6,0,0,0,53.7,366.76Z" style="fill:#fed93e"/><path d="M32.3,376.47,35.13,366l-10.49-2.83a5.94,5.94,0,0,0-7.29,4.18h0l-2.83,10.49L25,380.67A6,6,0,0,0,32.3,376.47Z" style="fill:#fed93e"/><polygon points="0 383.54 0 392.36 4.24 383.81 0 383.54" style="fill:#fed93e"/><path d="M89.22,288.88,76.89,307.5l22.25-1.31a5.94,5.94,0,0,0,5.39-4.38l3.27-12.12-12.07-3.26A6,6,0,0,0,89.22,288.88Z" style="fill:#fed93e"/><path d="M110.62,279.16l-2.84,10.5,10.5,2.83a5.94,5.94,0,0,0,7.29-4.18h0l2.83-10.5L117.9,275A5.93,5.93,0,0,0,110.62,279.16Z" style="fill:#fed93e"/><path d="M344.64,152.91l11.08,3a6,6,0,0,0,7.09-3.57l5-12.77-13.53-2.1a6,6,0,0,0-6.65,4.33Z" style="fill:#fed93e"/><path d="M330.89,152.44l-4.27,10.87,11.55,1.78A6,6,0,0,0,345,160a6.11,6.11,0,0,0,.05-1.13l-.35-5.93-5-3.28a6,6,0,0,0-8.22,1.72A6.27,6.27,0,0,0,330.89,152.44Z" style="fill:#fed93e"/><path d="M201.45,228.19l-1,8,7.34,3.16a6,6,0,0,0,7.86-3.21c.09-.23.17-.46.24-.7l2.6-9.62-9.6-2.6a5.93,5.93,0,0,0-7.28,4.18A5.53,5.53,0,0,0,201.45,228.19Z" style="fill:#fed93e"/><path d="M221.48,214.64l-3,11.1,11.1,3a6,6,0,0,0,7.08-3.57l5-12.77-13.55-2.08A6,6,0,0,0,221.48,214.64Z" style="fill:#fed93e"/><path d="M146.05,257l-7.37,14.84,16.52,1.09a5.94,5.94,0,0,0,6.13-4.38L164.44,257l-11.52-3.11A5.94,5.94,0,0,0,146.05,257Z" style="fill:#fed93e"/><path d="M167.54,245.43,164.43,257,176,260.07a6,6,0,0,0,6.88-3.1l7.36-14.84L173.67,241A6,6,0,0,0,167.54,245.43Z" style="fill:#fed93e"/><path d="M259.56,191.11,252,206.42l17,1.12a5.94,5.94,0,0,0,5.92-3.76l5.37-13.68-14.51-2.23A6,6,0,0,0,259.56,191.11Z" style="fill:#fed93e"/><path d="M288.28,173.94l-8,16.13,17.93,1.18a6,6,0,0,0,5.35-2.65l12.78-19.31-23.08,1.36A6,6,0,0,0,288.28,173.94Z" style="fill:#fed93e"/><path d="M339.62,179.92,336.34,192l12.08,3.27a5.94,5.94,0,0,0,6.51-2.46l12.32-18.61L345,175.53A5.93,5.93,0,0,0,339.62,179.92Z" style="fill:#fed93e"/><path d="M318.57,193.43l-2.83,10.49,10.5,2.83a5.94,5.94,0,0,0,7.29-4.18h0l2.83-10.49-10.5-2.83a5.94,5.94,0,0,0-7.29,4.18Z" style="fill:#fed93e"/><path d="M81.33,329.38l-5,12.78,13.53,2.09a6,6,0,0,0,6.65-4.32l3-11.11-11.08-3A6,6,0,0,0,81.33,329.38Z" style="fill:#fed93e"/><path d="M113.25,329.28l4.27-10.87L106,316.64a6,6,0,0,0-6.79,5.09,6.11,6.11,0,0,0,0,1.13l.35,5.92,5,3.29a5.93,5.93,0,0,0,8.21-1.77A5.48,5.48,0,0,0,113.25,329.28Z" style="fill:#fed93e"/><path d="M228.24,246.32,225.63,256l9.61,2.6a5.94,5.94,0,0,0,7.29-4.18,5.66,5.66,0,0,0,.16-.82l1-8-7.34-3.17a6,6,0,0,0-7.86,3.19A5.83,5.83,0,0,0,228.24,246.32Z" style="fill:#fed93e"/><path d="M207.47,256.56l-5,12.77L216,271.41a6,6,0,0,0,6.65-4.33l3-11.1-11.1-3A6,6,0,0,0,207.47,256.56Z" style="fill:#fed93e"/><path d="M282.81,213.19l-3.11,11.54,11.52,3.12a5.94,5.94,0,0,0,6.87-3.1l7.37-14.85L289,208.81A6,6,0,0,0,282.81,213.19Z" style="fill:#fed93e"/><path d="M261.31,224.76,254,239.6l16.53,1.08a5.94,5.94,0,0,0,6.13-4.38l3.11-11.53-11.53-3.11A6,6,0,0,0,261.31,224.76Z" style="fill:#fed93e"/><path d="M169.21,278l-5.37,13.67,14.52,2.23a6,6,0,0,0,6.23-3.23l7.59-15.31-17.05-1.13A5.94,5.94,0,0,0,169.21,278Z" style="fill:#fed93e"/><path d="M140.58,293.12,127.8,312.43l23.08-1.36a5.94,5.94,0,0,0,5-3.29l8-16.12L146,290.47A6,6,0,0,0,140.58,293.12Z" style="fill:#fed93e"/><path d="M91.32,377.75l5-12.78L82.8,362.88a5.93,5.93,0,0,0-6.64,4.32l-3,11.11,11.08,3A6,6,0,0,0,91.32,377.75Z" style="fill:#fed93e"/><path d="M59.39,377.84l-4.26,10.88,11.54,1.77a5.94,5.94,0,0,0,6.78-5,6.65,6.65,0,0,0,.06-1.26l-.34-5.92-5-3.29a6,6,0,0,0-8.29,1.83A6.56,6.56,0,0,0,59.39,377.84Z" style="fill:#fed93e"/><path d="M3.44,429.18l5.37-13.67L0,414.15v18.41A6,6,0,0,0,3.44,429.18Z" style="fill:#fed93e"/><path d="M32.07,414l12.78-19.3-23.08,1.35a6,6,0,0,0-5,3.3l-8,16.12,17.93,1.19A6,6,0,0,0,32.07,414Z" style="fill:#fed93e"/><path d="M118.94,340.37,106.62,359l22.24-1.31a5.92,5.92,0,0,0,5.39-4.38l3.28-12.12-12.08-3.26A6,6,0,0,0,118.94,340.37Z" style="fill:#fed93e"/><path d="M140.34,330.65l-2.83,10.5L148,344a5.94,5.94,0,0,0,7.29-4.18h0l2.83-10.5-10.5-2.83A6,6,0,0,0,140.34,330.65Z" style="fill:#fed93e"/><path d="M374.37,204.4l11.08,3a5.93,5.93,0,0,0,7.09-3.57l5-12.77L384,189a5.93,5.93,0,0,0-6.65,4.32Z" style="fill:#fed93e"/><path d="M360.62,203.93l-4.27,10.87,11.55,1.78a5.94,5.94,0,0,0,6.78-5,6.65,6.65,0,0,0,.06-1.26l-.35-5.93-4.95-3.28a6,6,0,0,0-8.3,1.78A5.92,5.92,0,0,0,360.62,203.93Z" style="fill:#fed93e"/><path d="M231.18,279.68l-1,8,7.34,3.16a6,6,0,0,0,7.81-3.1,5.53,5.53,0,0,0,.28-.81l2.61-9.62-9.61-2.6a5.94,5.94,0,0,0-7.28,4.2A6.55,6.55,0,0,0,231.18,279.68Z" style="fill:#fed93e"/><path d="M251.21,266.13l-3,11.1,11.1,3a6,6,0,0,0,7.08-3.57l5-12.77-13.55-2.08A6,6,0,0,0,251.21,266.13Z" style="fill:#fed93e"/><path d="M175.78,308.47l-7.37,14.84,16.51,1.09a5.94,5.94,0,0,0,6.14-4.38l3.11-11.54-11.52-3.11A5.94,5.94,0,0,0,175.78,308.47Z" style="fill:#fed93e"/><path d="M197.26,296.92l-3.11,11.53,11.53,3.11a6,6,0,0,0,6.88-3.1l7.36-14.84-16.53-1.09A6,6,0,0,0,197.26,296.92Z" style="fill:#fed93e"/><path d="M289.28,242.6l-7.59,15.31L298.74,259a5.94,5.94,0,0,0,5.92-3.76L310,241.59l-14.52-2.23A6,6,0,0,0,289.28,242.6Z" style="fill:#fed93e"/><path d="M318,225.44l-8,16.12,17.93,1.18a6,6,0,0,0,5.35-2.65l12.78-19.31L323,222.14A6,6,0,0,0,318,225.44Z" style="fill:#fed93e"/><path d="M369.34,231.41l-3.27,12.11,12.07,3.27a6,6,0,0,0,6.51-2.45L397,225.72,374.73,227A5.94,5.94,0,0,0,369.34,231.41Z" style="fill:#fed93e"/><path d="M348.3,244.92l-2.83,10.49,10.5,2.84a6,6,0,0,0,7.28-4.19h0l2.84-10.49-10.5-2.83a5.94,5.94,0,0,0-7.29,4.18Z" style="fill:#fed93e"/><path d="M111.06,380.87l-5,12.78,13.53,2.09a5.94,5.94,0,0,0,6.65-4.32l3-11.11-11.08-3A6,6,0,0,0,111.06,380.87Z" style="fill:#fed93e"/><path d="M143,380.78l4.27-10.88-11.55-1.77a5.94,5.94,0,0,0-6.78,5,6.65,6.65,0,0,0-.06,1.26l.35,5.92,5,3.29a6,6,0,0,0,8.3-1.78A5.92,5.92,0,0,0,143,380.78Z" style="fill:#fed93e"/><path d="M258,297.81l-2.6,9.63L265,310a6,6,0,0,0,7.32-4.29,5.57,5.57,0,0,0,.14-.71l1-8-7.34-3.16a6,6,0,0,0-7.86,3.2A7,7,0,0,0,258,297.81Z" style="fill:#fed93e"/><path d="M237.2,308.05l-5,12.77,13.55,2.08a6,6,0,0,0,6.65-4.33l3-11.1-11.1-3A6,6,0,0,0,237.2,308.05Z" style="fill:#fed93e"/><path d="M312.54,264.69l-3.11,11.53L321,279.34a5.94,5.94,0,0,0,6.87-3.1l7.37-14.85-16.52-1.09A6,6,0,0,0,312.54,264.69Z" style="fill:#fed93e"/><path d="M291,276.25l-7.36,14.84,16.52,1.09a5.93,5.93,0,0,0,6.13-4.39l3.12-11.53-11.53-3.11A6,6,0,0,0,291,276.25Z" style="fill:#fed93e"/><path d="M198.94,329.44l-5.37,13.67,14.51,2.24a6,6,0,0,0,6.23-3.24l7.6-15.31-17-1.12A5.94,5.94,0,0,0,198.94,329.44Z" style="fill:#fed93e"/><path d="M170.31,344.61l-12.78,19.31,23.08-1.36a5.94,5.94,0,0,0,5-3.29l8-16.12-18-1.15A6,6,0,0,0,170.31,344.61Z" style="fill:#fed93e"/><path d="M148.67,391.86l-12.32,18.62,22.24-1.31a5.94,5.94,0,0,0,5.39-4.38l3.28-12.11-12.08-3.27A6,6,0,0,0,148.67,391.86Z" style="fill:#fed93e"/><path d="M170.07,382.15l-2.83,10.49,10.5,2.83a5.94,5.94,0,0,0,7.29-4.18h0l2.83-10.5L177.36,378A6,6,0,0,0,170.07,382.15Z" style="fill:#fed93e"/><path d="M422.27,255.33l5-12.78-13.54-2.09a5.93,5.93,0,0,0-6.64,4.32l-3,11.11,11.08,3A6,6,0,0,0,422.27,255.33Z" style="fill:#fed93e"/><path d="M390.35,255.42l-4.27,10.88,11.54,1.77a5.94,5.94,0,0,0,6.78-5,6.65,6.65,0,0,0,.06-1.26l-.34-5.92-4.95-3.29a6,6,0,0,0-8.3,1.78A5.92,5.92,0,0,0,390.35,255.42Z" style="fill:#fed93e"/><path d="M260.91,331.17l-1,8,7.34,3.16a5.92,5.92,0,0,0,7.8-3.08,5.69,5.69,0,0,0,.29-.82L278,328.8l-9.61-2.6a5.94,5.94,0,0,0-7.28,4.2A6.55,6.55,0,0,0,260.91,331.17Z" style="fill:#fed93e"/><path d="M280.94,317.63l-3,11.1,11.1,3a6,6,0,0,0,7.08-3.57l5-12.77-13.55-2.08A6,6,0,0,0,280.94,317.63Z" style="fill:#fed93e"/><path d="M205.51,360l-7.37,14.84,16.51,1.1a5.93,5.93,0,0,0,6.13-4.39L223.9,360l-11.52-3.11A5.94,5.94,0,0,0,205.51,360Z" style="fill:#fed93e"/><path d="M227,348.41l-3.11,11.53,11.53,3.11a6,6,0,0,0,6.88-3.1l7.36-14.84L233.12,344A6,6,0,0,0,227,348.41Z" style="fill:#fed93e"/><path d="M319,294.09l-7.59,15.31,17,1.12a5.94,5.94,0,0,0,5.92-3.76l5.37-13.67-14.52-2.24A6,6,0,0,0,319,294.09Z" style="fill:#fed93e"/><path d="M347.74,276.93l-8,16.12,17.93,1.19a6,6,0,0,0,5.35-2.66l12.78-19.3-23.08,1.35A6,6,0,0,0,347.74,276.93Z" style="fill:#fed93e"/><path d="M399.07,282.9,395.79,295l12.08,3.27a6,6,0,0,0,6.51-2.45l12.33-18.62-22.25,1.31A5.94,5.94,0,0,0,399.07,282.9Z" style="fill:#fed93e"/><path d="M378,296.41l-2.83,10.5,10.49,2.83a6,6,0,0,0,7.29-4.2l2.83-10.49-10.49-2.83A5.94,5.94,0,0,0,378,296.4Z" style="fill:#fed93e"/><path d="M159,431.8l-11.08-3a5.94,5.94,0,0,0-7.08,3.56l-5,12.78,13.54,2.09a5.94,5.94,0,0,0,6.65-4.32Z" style="fill:#fed93e"/><path d="M172.71,432.27,177,421.39l-11.55-1.77a5.94,5.94,0,0,0-6.78,5,6.65,6.65,0,0,0-.06,1.26l.34,5.93,5,3.28a6,6,0,0,0,8.28-1.85A5.85,5.85,0,0,0,172.71,432.27Z" style="fill:#fed93e"/><path d="M287.69,349.3l-2.6,9.63,9.6,2.6a6,6,0,0,0,7.32-4.29,5.57,5.57,0,0,0,.14-.71l1-8-7.35-3.16a6,6,0,0,0-7.86,3.2A6.28,6.28,0,0,0,287.69,349.3Z" style="fill:#fed93e"/><path d="M266.93,359.54l-5,12.77,13.55,2.08a5.93,5.93,0,0,0,6.64-4.33l3-11.1L274,356A5.94,5.94,0,0,0,266.93,359.54Z" style="fill:#fed93e"/><path d="M342.27,316.18l-3.12,11.54,11.52,3.11a6,6,0,0,0,6.88-3.1l7.37-14.84L348.4,311.8A5.94,5.94,0,0,0,342.27,316.18Z" style="fill:#fed93e"/><path d="M320.77,327.74l-7.36,14.84,16.52,1.09a6,6,0,0,0,6.13-4.39l3.11-11.53-11.53-3.11A5.94,5.94,0,0,0,320.77,327.74Z" style="fill:#fed93e"/><path d="M228.67,380.93,223.3,394.6l14.51,2.24A6,6,0,0,0,244,393.6l7.6-15.31-17-1.12A6,6,0,0,0,228.67,380.93Z" style="fill:#fed93e"/><path d="M200,396.11l-12.79,19.3,23.09-1.35a6,6,0,0,0,5-3.3l8-16.12-17.93-1.19A6,6,0,0,0,200,396.11Z" style="fill:#fed93e"/><path d="M193.71,456.28,197,444.17l-12.08-3.27a5.94,5.94,0,0,0-6.51,2.46L166.08,462l22.24-1.31A5.94,5.94,0,0,0,193.71,456.28Z" style="fill:#fed93e"/><path d="M214.76,442.77l2.83-10.49-10.5-2.84a6,6,0,0,0-7.29,4.2L197,444.13,207.5,447A5.94,5.94,0,0,0,214.76,442.77Z" style="fill:#fed93e"/><path d="M433.83,307.38l11.08,3a6,6,0,0,0,7.09-3.56L457,294l-13.52-2a5.94,5.94,0,0,0-6.64,4.32Z" style="fill:#fed93e"/><path d="M420.07,306.91l-4.26,10.88,11.54,1.77a5.94,5.94,0,0,0,6.78-5,6.65,6.65,0,0,0,.06-1.26l-.34-5.92-5-3.29a6,6,0,0,0-8.29,1.83A6.56,6.56,0,0,0,420.07,306.91Z" style="fill:#fed93e"/><path d="M290.64,382.66l-1,8,7.35,3.16a5.94,5.94,0,0,0,7.81-3.1,5.84,5.84,0,0,0,.28-.8l2.61-9.63-9.61-2.6a5.93,5.93,0,0,0-7.28,4.18A5.53,5.53,0,0,0,290.64,382.66Z" style="fill:#fed93e"/><path d="M310.67,369.12l-3,11.1,11.09,3a6,6,0,0,0,7.09-3.57l5-12.77-13.56-2.08A6,6,0,0,0,310.67,369.12Z" style="fill:#fed93e"/><path d="M235.23,411.45l-7.37,14.85,16.52,1.09a6,6,0,0,0,6.13-4.39l3.12-11.53-11.52-3.12A6,6,0,0,0,235.23,411.45Z" style="fill:#fed93e"/><path d="M272,411.44l7.37-14.84-16.53-1.09a6,6,0,0,0-6.13,4.39l-3.11,11.53,11.53,3.11A5.94,5.94,0,0,0,272,411.44Z" style="fill:#fed93e"/><path d="M348.74,345.58l-7.59,15.31,17,1.12a6,6,0,0,0,5.93-3.76l5.36-13.67L355,342.34A6,6,0,0,0,348.74,345.58Z" style="fill:#fed93e"/><path d="M377.47,328.42l-8,16.12,17.93,1.19a6,6,0,0,0,5.35-2.65l12.78-19.31-23.08,1.36A5.94,5.94,0,0,0,377.47,328.42Z" style="fill:#fed93e"/><path d="M428.8,334.39l-3.28,12.12,12.08,3.26a6,6,0,0,0,6.51-2.45l12.33-18.62L434.19,330A5.94,5.94,0,0,0,428.8,334.39Z" style="fill:#fed93e"/><path d="M407.76,347.9l-2.83,10.5,10.49,2.83a6,6,0,0,0,7.29-4.19l2.83-10.5-10.49-2.83a5.94,5.94,0,0,0-7.29,4.18Z" style="fill:#fed93e"/><path d="M331.88,408l1-8-7.35-3.16a6,6,0,0,0-7.85,3.22q-.14.35-.24.69l-2.6,9.62,9.6,2.6a6,6,0,0,0,7.31-4.31C331.8,408.44,331.85,408.22,331.88,408Z" style="fill:#fed93e"/><path d="M311.84,421.56l3-11.1-11.1-3a5.94,5.94,0,0,0-7.08,3.57l-5,12.77,13.55,2.08A5.93,5.93,0,0,0,311.84,421.56Z" style="fill:#fed93e"/><path d="M372,367.67l-3.12,11.54,11.52,3.11a6,6,0,0,0,6.88-3.1l7.37-14.84-16.52-1.09A5.92,5.92,0,0,0,372,367.67Z" style="fill:#fed93e"/><path d="M350.5,379.23l-7.36,14.84,16.52,1.09a6,6,0,0,0,6.13-4.39l3.11-11.53-11.53-3.11A5.94,5.94,0,0,0,350.5,379.23Z" style="fill:#fed93e"/><path d="M273.77,445.09l7.6-15.31-17.05-1.12a6,6,0,0,0-5.93,3.76L253,446.1l14.51,2.23A6,6,0,0,0,273.77,445.09Z" style="fill:#fed93e"/><path d="M245,462.26l8-16.13L235.11,445a6,6,0,0,0-5.35,2.65L217,466.91l23.09-1.36A6,6,0,0,0,245,462.26Z" style="fill:#fed93e"/><path d="M463.56,358.87l11.08,3a5.94,5.94,0,0,0,7.08-3.56l5-12.78-13.54-2.09a6,6,0,0,0-6.65,4.32Z" style="fill:#fed93e"/><path d="M449.8,358.41l-4.26,10.87,11.54,1.77a5.94,5.94,0,0,0,6.78-5,6.65,6.65,0,0,0,.06-1.26l-.34-5.92-5-3.29a6,6,0,0,0-8.28,1.83A6.26,6.26,0,0,0,449.8,358.41Z" style="fill:#fed93e"/><path d="M334.82,441.37l2.6-9.63-9.6-2.6a6,6,0,0,0-7.32,4.29,5.57,5.57,0,0,0-.14.71l-1,8,7.35,3.17a6,6,0,0,0,7.86-3.21A6.28,6.28,0,0,0,334.82,441.37Z" style="fill:#fed93e"/><path d="M355.59,431.13l5-12.77L347,416.28a5.94,5.94,0,0,0-6.64,4.33l-3,11.1,11.1,3A6,6,0,0,0,355.59,431.13Z" style="fill:#fed93e"/><path d="M280.24,474.5l3.12-11.5-11.52-3.12A6,6,0,0,0,265,463l-7.37,14.85,16.52,1.09A6,6,0,0,0,280.24,474.5Z" style="fill:#fed93e"/><path d="M301.74,462.93l7.36-14.84L292.58,447a5.92,5.92,0,0,0-6.13,4.38l-3.11,11.53L294.87,466A5.94,5.94,0,0,0,301.74,462.93Z" style="fill:#fed93e"/><path d="M378.47,397.07l-7.6,15.31,17.05,1.13a6,6,0,0,0,5.93-3.77l5.36-13.67-14.51-2.23A5.93,5.93,0,0,0,378.47,397.07Z" style="fill:#fed93e"/><path d="M407.2,379.91l-8,16.12,17.94,1.19a6,6,0,0,0,5.35-2.65l12.78-19.31-23.09,1.36A5.94,5.94,0,0,0,407.2,379.91Z" style="fill:#fed93e"/><path d="M458.53,385.88,455.25,398l12.08,3.27a6,6,0,0,0,6.51-2.46l12.33-18.62-22.25,1.31A5.94,5.94,0,0,0,458.53,385.88Z" style="fill:#fed93e"/><path d="M437.49,399.39l-2.84,10.5,10.5,2.83a6,6,0,0,0,7.29-4.19l2.83-10.5-10.5-2.83a5.93,5.93,0,0,0-7.28,4.17Z" style="fill:#fed93e"/><path d="M361.6,459.5l1-8-7.35-3.16a6,6,0,0,0-7.85,3.22q-.13.35-.24.69l-2.61,9.62,9.61,2.6a5.93,5.93,0,0,0,7.28-4.18A5.53,5.53,0,0,0,361.6,459.5Z" style="fill:#fed93e"/><path d="M341.57,473.05l3-11.1-11.09-3a6,6,0,0,0-7.09,3.57l-5,12.77L335,477.37A5.93,5.93,0,0,0,341.57,473.05Z" style="fill:#fed93e"/><path d="M417,430.71l7.37-14.84-16.52-1.09a5.92,5.92,0,0,0-6.13,4.38L398.6,430.7l11.52,3.11A6,6,0,0,0,417,430.71Z" style="fill:#fed93e"/><path d="M395.52,442.26l3.11-11.53-11.53-3.11a5.94,5.94,0,0,0-6.87,3.1l-7.37,14.84,16.53,1.09A6,6,0,0,0,395.52,442.26Z" style="fill:#fed93e"/><path d="M511.45,409.8l5-12.78-13.54-2.09a6,6,0,0,0-6.65,4.32l-3,11.11,11.08,3A5.94,5.94,0,0,0,511.45,409.8Z" style="fill:#fed93e"/><path d="M479.53,409.9l-4.27,10.87,11.55,1.78a6,6,0,0,0,6.79-5.09,6.22,6.22,0,0,0,0-1.14l-.34-5.92-5-3.29a6,6,0,0,0-8.28,1.83A6.26,6.26,0,0,0,479.53,409.9Z" style="fill:#fed93e"/><path d="M364.55,492.86l2.6-9.63-9.6-2.6a6,6,0,0,0-7.32,4.29,5.57,5.57,0,0,0-.14.71l-1,8,7.35,3.17a6,6,0,0,0,7.86-3.21A6.28,6.28,0,0,0,364.55,492.86Z" style="fill:#fed93e"/><path d="M385.31,482.62l5-12.76-13.55-2.09a5.94,5.94,0,0,0-6.64,4.33l-3,11.1,11.1,3A5.94,5.94,0,0,0,385.31,482.62Z" style="fill:#fed93e"/><path d="M310,526l3.12-11.54-11.52-3.11a5.94,5.94,0,0,0-6.88,3.09l-7.37,14.85,16.52,1.09A6,6,0,0,0,310,526Z" style="fill:#fed93e"/><path d="M331.47,514.43l7.36-14.85-16.52-1.08a5.94,5.94,0,0,0-6.13,4.38l-3.11,11.53,11.53,3.11A6,6,0,0,0,331.47,514.43Z" style="fill:#fed93e"/><path d="M423.58,461.24l5.36-13.68-14.51-2.23a5.93,5.93,0,0,0-6.23,3.23l-7.6,15.32,17,1.12A6,6,0,0,0,423.58,461.24Z" style="fill:#fed93e"/><path d="M452.2,446.06,465,426.75l-23.09,1.36a5.92,5.92,0,0,0-5,3.29l-8,16.12,17.93,1.19A5.94,5.94,0,0,0,452.2,446.06Z" style="fill:#fed93e"/><path d="M503.57,450.3l12.32-18.62L493.65,433a5.94,5.94,0,0,0-5.39,4.38L485,449.49l12.08,3.27A5.94,5.94,0,0,0,503.57,450.3Z" style="fill:#fed93e"/><path d="M482.17,460,485,449.5l-10.5-2.83a6,6,0,0,0-7.29,4.19l-2.83,10.5,10.5,2.83a5.94,5.94,0,0,0,7.29-4.18Z" style="fill:#fed93e"/><path d="M391.33,511l1-8L385,499.87a6,6,0,0,0-7.81,3.1,5.53,5.53,0,0,0-.28.81l-2.61,9.62,9.61,2.6a6,6,0,0,0,7.27-4.21A5.24,5.24,0,0,0,391.33,511Z" style="fill:#fed93e"/><path d="M371.3,524.54l3-11.1-11.09-3a6,6,0,0,0-7.09,3.57l-5,12.77,13.55,2.09A6,6,0,0,0,371.3,524.54Z" style="fill:#fed93e"/><path d="M446.74,482.2l7.36-14.84-16.51-1.09a5.94,5.94,0,0,0-6.13,4.38l-3.12,11.54,11.52,3.11A6,6,0,0,0,446.74,482.2Z" style="fill:#fed93e"/><path d="M425.25,493.76l3.11-11.54-11.53-3.11a5.94,5.94,0,0,0-6.87,3.1l-7.37,14.84,16.53,1.09A6,6,0,0,0,425.25,493.76Z" style="fill:#fed93e"/><path d="M288.34,13.78l13.54,2.09a6,6,0,0,0,6.65-4.33l3-11.11L309.94,0H293.87a6.22,6.22,0,0,0-.5,1Z" style="fill:#fed93e"/><path d="M316.47,3.68A5.92,5.92,0,0,0,324.69,2a6.2,6.2,0,0,0,.6-1.14l.35-.9H311.49V.4Z" style="fill:#fed93e"/><path d="M346.29,24.92l3.28-12.12L337.49,9.53A6,6,0,0,0,331,12L318.66,30.6l22.24-1.3A6,6,0,0,0,346.29,24.92Z" style="fill:#fed93e"/><path d="M349.55,12.77l10.5,2.83a6,6,0,0,0,7.29-4.2L370.17.91,366.8,0H353.57a6,6,0,0,0-1.19,2.27Z" style="fill:#fed93e"/><path d="M338.26,63l3-11.12-11.08-3a6,6,0,0,0-7.08,3.57l-5,12.78,13.54,2.09A6,6,0,0,0,338.26,63Z" style="fill:#fed93e"/><path d="M340.9,46l.34,5.93,5,3.28A6,6,0,0,0,355,52.39l4.27-10.87-11.55-1.78A6,6,0,0,0,341,44.85,6.33,6.33,0,0,0,340.9,46Z" style="fill:#fed93e"/><path d="M405.61,14.73,420.12,17a6,6,0,0,0,6.23-3.23L433.16,0H411.53A6.45,6.45,0,0,0,411,1.05Z" style="fill:#fed93e"/><path d="M397.62,30.89l8-16.13-17.94-1.18a5.92,5.92,0,0,0-5.34,2.65L369.56,35.54l23.09-1.36A5.93,5.93,0,0,0,397.62,30.89Z" style="fill:#fed93e"/><path d="M370.63,80.79A6,6,0,0,0,376,76.41l3.28-12.12L367.22,61a5.94,5.94,0,0,0-6.51,2.46L348.38,82.09Z" style="fill:#fed93e"/><path d="M382.11,53.76l-2.83,10.5,10.5,2.83a5.94,5.94,0,0,0,7.28-4.19l2.84-10.5-10.5-2.83a5.94,5.94,0,0,0-7.29,4.18Z" style="fill:#fed93e"/><path d="M472,10.75l7.35,3.16a6,6,0,0,0,7.83-3.27c.08-.21.16-.42.22-.64L490,.38,488.62,0H474.06A5.85,5.85,0,0,0,473,2.79Z" style="fill:#fed93e"/><path d="M501.08,3.33a5.93,5.93,0,0,0,7-3.33h-18L490,.34Z" style="fill:#fed93e"/><path d="M432.82,43.13l3.12-11.54-11.52-3.11a5.94,5.94,0,0,0-6.88,3.09l-7.37,14.85,16.52,1.09A5.94,5.94,0,0,0,432.82,43.13Z" style="fill:#fed93e"/><path d="M454.32,31.57l7.37-14.84-16.53-1.09A5.94,5.94,0,0,0,439,20l-3.11,11.54,11.53,3.11A6,6,0,0,0,454.32,31.57Z" style="fill:#fed93e"/><path d="M352.82,104l-5,12.78,13.54,2.09a6,6,0,0,0,6.65-4.32l3-11.12-11.08-3A5.94,5.94,0,0,0,352.82,104Z" style="fill:#fed93e"/><path d="M370.63,97.46l.34,5.92,5,3.29a6,6,0,0,0,8.3-1.78,6.43,6.43,0,0,0,.52-1L389,93l-11.54-1.78a6,6,0,0,0-6.78,5.1A6.22,6.22,0,0,0,370.63,97.46Z" style="fill:#fed93e"/><path d="M514.19,28.13l1-7.95L507.82,17A6,6,0,0,0,500,20.22q-.14.34-.24.69l-2.6,9.63,9.6,2.6a6,6,0,0,0,7.32-4.29A6.1,6.1,0,0,0,514.19,28.13Z" style="fill:#fed93e"/><path d="M494.15,41.68l3-11.1-11.1-3A5.94,5.94,0,0,0,479,31.16l-5,12.76L487.51,46A6,6,0,0,0,494.15,41.68Z" style="fill:#fed93e"/><path d="M569.19,0H553.67l9,2.44A5.93,5.93,0,0,0,569.19,0Z" style="fill:#fed93e"/><path d="M542,15.28a5.94,5.94,0,0,0,6.13-4.38L551,0H532.49l-7,14.2Z" style="fill:#fed93e"/><path d="M440.7,52.54l-5.36,13.68,14.51,2.23a5.93,5.93,0,0,0,6.23-3.23l7.6-15.32-17.05-1.12A6,6,0,0,0,440.7,52.54Z" style="fill:#fed93e"/><path d="M412.07,67.72,399.29,87l23.09-1.36a5.92,5.92,0,0,0,5-3.29l8-16.13L417.44,65A6,6,0,0,0,412.07,67.72Z" style="fill:#fed93e"/><path d="M390.44,115l-12.33,18.62,22.25-1.31a5.94,5.94,0,0,0,5.39-4.38L409,115.78l-12-3.27A5.94,5.94,0,0,0,390.44,115Z" style="fill:#fed93e"/><path d="M419.13,101.06a5.94,5.94,0,0,0-7.29,4.18h0L409,115.75l10.49,2.83a6,6,0,0,0,7.29-4.19l2.83-10.5Z" style="fill:#fed93e"/><path d="M502.67,54.28l-1,8L509,65.4a6,6,0,0,0,7.85-3.22q.14-.34.24-.69l2.6-9.62-9.6-2.6a6,6,0,0,0-7.29,4.34A5,5,0,0,0,502.67,54.28Z" style="fill:#fed93e"/><path d="M537.89,51.26l5-12.77L529.35,36.4a6,6,0,0,0-6.64,4.33l-3,11.1,11.1,3A6,6,0,0,0,537.89,51.26Z" style="fill:#fed93e"/><path d="M447.27,83.07,439.9,97.91,456.42,99a5.94,5.94,0,0,0,6.13-4.38l3.12-11.54L454.15,80A6,6,0,0,0,447.27,83.07Z" style="fill:#fed93e"/><path d="M484.05,83.06l7.36-14.84-16.52-1.09a5.94,5.94,0,0,0-6.13,4.38l-3.11,11.54,11.53,3.11A6,6,0,0,0,484.05,83.06Z" style="fill:#fed93e"/><path d="M576.16,29.87l5.36-13.68L567,14a6,6,0,0,0-6.23,3.23l-7.6,15.32,17.05,1.12A6,6,0,0,0,576.16,29.87Z" style="fill:#fed93e"/><path d="M581.5,16.16l17.94,1.18a6,6,0,0,0,5.35-2.65L614.51,0h-25Z" style="fill:#fed93e"/><path d="M656.15,18.93,668.47.32l-22.24,1.3A6,6,0,0,0,640.84,6l-3.28,12.11,12.08,3.27A6,6,0,0,0,656.15,18.93Z" style="fill:#fed93e"/><path d="M634.75,28.65l2.83-10.49-10.5-2.84a6,6,0,0,0-7.29,4.2L617,30l10.5,2.83A6,6,0,0,0,634.75,28.65Z" style="fill:#fed93e"/><path d="M391.07,170.34a5.94,5.94,0,0,0,6.64-4.32l3-11.11-11.08-3a6,6,0,0,0-7.09,3.56l-5,12.78Z" style="fill:#fed93e"/><path d="M414.48,155.37l4.26-10.87-11.54-1.77a5.94,5.94,0,0,0-6.78,5,6.65,6.65,0,0,0-.06,1.26l.34,5.92,5,3.29a6,6,0,0,0,8.28-1.83A6.26,6.26,0,0,0,414.48,155.37Z" style="fill:#fed93e"/><path d="M529.46,72.41,526.85,82l9.61,2.6a5.94,5.94,0,0,0,7.29-4.18,5.66,5.66,0,0,0,.16-.82l1-8-7.35-3.17a6,6,0,0,0-7.85,3.23A7.32,7.32,0,0,0,529.46,72.41Z" style="fill:#fed93e"/><path d="M508.69,82.65l-5,12.76,13.56,2.09a5.94,5.94,0,0,0,6.64-4.33l3-11.1-11.09-3A6,6,0,0,0,508.69,82.65Z" style="fill:#fed93e"/><path d="M592.44,53.93a5.94,5.94,0,0,0,6.88-3.09L606.69,36l-16.52-1.1A5.94,5.94,0,0,0,584,39.28l-3.12,11.54Z" style="fill:#fed93e"/><path d="M562.54,50.85l-7.37,14.84,16.53,1.08a5.94,5.94,0,0,0,6.13-4.38l3.11-11.53-11.53-3.11A5.94,5.94,0,0,0,562.54,50.85Z" style="fill:#fed93e"/><path d="M470.43,104l-5.37,13.68,14.52,2.23a5.93,5.93,0,0,0,6.23-3.23l7.59-15.32-17-1.12A6,6,0,0,0,470.43,104Z" style="fill:#fed93e"/><path d="M452.1,137.16a5.94,5.94,0,0,0,5-3.29l8-16.12-17.93-1.19a6,6,0,0,0-5.35,2.65L429,138.52Z" style="fill:#fed93e"/><path d="M420.17,166.46l-12.33,18.62,22.25-1.31a5.94,5.94,0,0,0,5.39-4.38l3.28-12.12L426.68,164A6,6,0,0,0,420.17,166.46Z" style="fill:#fed93e"/><path d="M441.57,156.74l-2.83,10.5,10.49,2.83a5.94,5.94,0,0,0,7.29-4.18h0l2.83-10.5-10.49-2.83A6,6,0,0,0,441.57,156.74Z" style="fill:#fed93e"/><path d="M693.76,29.92l5-12.77-13.54-2.1a6,6,0,0,0-6.65,4.33l-3,11.11,11.08,3A6,6,0,0,0,693.76,29.92Z" style="fill:#fed93e"/><path d="M661.84,30l-4.27,10.87,11.55,1.78a6,6,0,0,0,6.82-5,5.55,5.55,0,0,0,.06-1.15l-.34-5.93-5-3.28a5.94,5.94,0,0,0-8.24,1.65A5.86,5.86,0,0,0,661.84,30Z" style="fill:#fed93e"/><path d="M532.4,105.77l-1,8,7.35,3.16a6,6,0,0,0,7.85-3.22q.14-.34.24-.69l2.6-9.62-9.6-2.6a6,6,0,0,0-7.31,4.31C532.48,105.33,532.43,105.55,532.4,105.77Z" style="fill:#fed93e"/><path d="M567.62,102.75l5-12.77L559.08,87.9a5.93,5.93,0,0,0-6.64,4.32l-3,11.1,11.1,3A5.94,5.94,0,0,0,567.62,102.75Z" style="fill:#fed93e"/><path d="M477,134.56l-7.37,14.84,16.52,1.09a5.94,5.94,0,0,0,6.13-4.38l3.12-11.54-11.52-3.11A6,6,0,0,0,477,134.56Z" style="fill:#fed93e"/><path d="M498.49,123l-3.11,11.53,11.53,3.11a5.94,5.94,0,0,0,6.87-3.1l7.36-14.84-16.52-1.09A5.93,5.93,0,0,0,498.49,123Z" style="fill:#fed93e"/><path d="M590.51,68.69,582.91,84,600,85.12a6,6,0,0,0,5.93-3.76l5.36-13.68-14.51-2.23A6,6,0,0,0,590.51,68.69Z" style="fill:#fed93e"/><path d="M634.51,66.18l12.78-19.31-23.08,1.36a5.92,5.92,0,0,0-5,3.29l-8,16.13,17.93,1.18A5.93,5.93,0,0,0,634.51,66.18Z" style="fill:#fed93e"/><path d="M670.57,57.5l-3.28,12.11,12.08,3.27a5.94,5.94,0,0,0,6.51-2.46L698.2,51.81,676,53.11A5.93,5.93,0,0,0,670.57,57.5Z" style="fill:#fed93e"/><path d="M664.48,80.14l2.83-10.49-10.5-2.83A5.94,5.94,0,0,0,649.52,71h0l-2.83,10.5,10.5,2.83a5.94,5.94,0,0,0,7.29-4.18Z" style="fill:#fed93e"/><path d="M412.28,207l-5,12.78,13.54,2.09a5.94,5.94,0,0,0,6.64-4.32l3-11.11-11.08-3A6,6,0,0,0,412.28,207Z" style="fill:#fed93e"/><path d="M430.09,200.44l.34,5.92,4.95,3.29a5.94,5.94,0,0,0,8.23-1.66,5.53,5.53,0,0,0,.59-1.13L448.47,196l-11.54-1.77a5.94,5.94,0,0,0-6.78,5A6.51,6.51,0,0,0,430.09,200.44Z" style="fill:#fed93e"/><path d="M559.19,123.9l-2.61,9.63,9.61,2.6a5.94,5.94,0,0,0,7.29-4.18,5.66,5.66,0,0,0,.16-.82l1-8L567.28,120a6,6,0,0,0-7.85,3.22C559.34,123.44,559.26,123.67,559.19,123.9Z" style="fill:#fed93e"/><path d="M538.42,134.14l-5,12.77L547,149a6,6,0,0,0,6.65-4.33l3-11.1-11.1-3A6,6,0,0,0,538.42,134.14Z" style="fill:#fed93e"/><path d="M613.77,90.77l-3.12,11.54,11.52,3.12a5.94,5.94,0,0,0,6.87-3.1l7.37-14.85L619.9,86.39A6,6,0,0,0,613.77,90.77Z" style="fill:#fed93e"/><path d="M592.26,102.34l-7.36,14.84,16.53,1.08a5.94,5.94,0,0,0,6.13-4.38l3.11-11.53-11.53-3.11A6,6,0,0,0,592.26,102.34Z" style="fill:#fed93e"/><path d="M500.16,155.53l-5.37,13.67,14.52,2.23a5.93,5.93,0,0,0,6.23-3.23l7.59-15.31-17.05-1.13A6,6,0,0,0,500.16,155.53Z" style="fill:#fed93e"/><path d="M471.53,170.7,458.75,190l23.08-1.36a5.94,5.94,0,0,0,5-3.29l8-16.12L476.9,168A6,6,0,0,0,471.53,170.7Z" style="fill:#fed93e"/><path d="M449.9,218l-12.33,18.62,22.25-1.31a5.94,5.94,0,0,0,5.39-4.38l3.27-12.12-12.07-3.26A6,6,0,0,0,449.9,218Z" style="fill:#fed93e"/><path d="M471.3,208.23l-2.84,10.5,10.5,2.83a5.94,5.94,0,0,0,7.29-4.18h0l2.83-10.5L478.58,204a5.93,5.93,0,0,0-7.27,4.2Z" style="fill:#fed93e"/><path d="M691.57,81.51,687.3,92.38l11.55,1.78a7.39,7.39,0,0,0,1.15.06V78.5a5.94,5.94,0,0,0-8.08,2.28A5.42,5.42,0,0,0,691.57,81.51Z" style="fill:#fed93e"/><path d="M562.13,157.26l-1,8,7.34,3.16a6,6,0,0,0,7.86-3.21c.09-.23.17-.46.24-.7l2.6-9.62-9.6-2.6a5.93,5.93,0,0,0-7.28,4.18A5.53,5.53,0,0,0,562.13,157.26Z" style="fill:#fed93e"/><path d="M579.17,154.81l11.1,3a6,6,0,0,0,7.08-3.57l5-12.77-13.55-2.08a6,6,0,0,0-6.65,4.32Z" style="fill:#fed93e"/><path d="M506.73,186.05l-7.37,14.84L515.88,202a5.94,5.94,0,0,0,6.12-4.4l3.11-11.54L513.6,183A5.94,5.94,0,0,0,506.73,186.05Z" style="fill:#fed93e"/><path d="M528.22,174.5,525.1,186l11.53,3.11a6,6,0,0,0,6.88-3.1l7.36-14.84-16.52-1.09A5.94,5.94,0,0,0,528.22,174.5Z" style="fill:#fed93e"/><path d="M620.24,120.18l-7.6,15.31,17.05,1.12a5.94,5.94,0,0,0,5.92-3.76L641,119.17l-14.51-2.23A6,6,0,0,0,620.24,120.18Z" style="fill:#fed93e"/><path d="M653.94,99.72a6,6,0,0,0-5,3.3l-8,16.12,17.93,1.18a6,6,0,0,0,5.35-2.65L677,98.36Z" style="fill:#fed93e"/><polygon points="700 121.91 700 110.08 697.02 121.1 700 121.91" style="fill:#fed93e"/><path d="M679.25,122.5,676.42,133l10.5,2.84a6,6,0,0,0,7.29-4.2l2.79-10.5-10.5-2.83A5.94,5.94,0,0,0,679.25,122.5Z" style="fill:#fed93e"/><path d="M442,258.45l-5,12.78,13.53,2.09a6,6,0,0,0,6.65-4.32l3-11.11-11.08-3A6,6,0,0,0,442,258.45Z" style="fill:#fed93e"/><path d="M459.81,251.93l.35,5.92,4.95,3.29a6,6,0,0,0,8.3-1.78,5.92,5.92,0,0,0,.52-1l4.27-10.88-11.55-1.77a5.94,5.94,0,0,0-6.78,5A6.65,6.65,0,0,0,459.81,251.93Z" style="fill:#fed93e"/><path d="M588.92,175.39,586.31,185l9.61,2.6a5.94,5.94,0,0,0,7.29-4.18,5.66,5.66,0,0,0,.16-.82l1-8L597,171.49a5.93,5.93,0,0,0-7.8,3.09A5.53,5.53,0,0,0,588.92,175.39Z" style="fill:#fed93e"/><path d="M568.15,185.63l-5,12.77,13.55,2.08a6,6,0,0,0,6.65-4.33l3-11.1-11.1-3A6,6,0,0,0,568.15,185.63Z" style="fill:#fed93e"/><path d="M658.77,153.82,666.14,139l-16.51-1.09a6,6,0,0,0-6.14,4.39l-3.11,11.53L651.9,157A6,6,0,0,0,658.77,153.82Z" style="fill:#fed93e"/><path d="M628.87,150.73a6,6,0,0,0-6.88,3.1l-7.36,14.84,16.53,1.09a6,6,0,0,0,6.13-4.39l3.11-11.53Z" style="fill:#fed93e"/><path d="M529.89,207l-5.37,13.67L539,222.93a6,6,0,0,0,6.23-3.24l7.59-15.31-17.05-1.12A6,6,0,0,0,529.89,207Z" style="fill:#fed93e"/><path d="M501.26,222.19,488.48,241.5l23.08-1.36a5.94,5.94,0,0,0,5-3.29l8-16.12-17.93-1.19A6,6,0,0,0,501.26,222.19Z" style="fill:#fed93e"/><path d="M479.62,269.44,467.3,288.06l22.24-1.31a5.92,5.92,0,0,0,5.39-4.38l3.28-12.11L486.13,267A6,6,0,0,0,479.62,269.44Z" style="fill:#fed93e"/><path d="M508.31,255.53a6,6,0,0,0-7.29,4.2l-2.83,10.49,10.5,2.83a5.94,5.94,0,0,0,7.29-4.18h0l2.83-10.5Z" style="fill:#fed93e"/><path d="M591.86,208.75l-1,8,7.34,3.16a5.92,5.92,0,0,0,7.8-3.08,5.69,5.69,0,0,0,.29-.82l2.61-9.63-9.61-2.6A5.94,5.94,0,0,0,592,208,6.55,6.55,0,0,0,591.86,208.75Z" style="fill:#fed93e"/><path d="M611.89,195.21l-3,11.1,11.1,3a6,6,0,0,0,7.08-3.57l5-12.77-13.55-2.08A6,6,0,0,0,611.89,195.21Z" style="fill:#fed93e"/><path d="M536.46,237.54l-7.37,14.84,16.51,1.1a6,6,0,0,0,6.14-4.39l3.11-11.54-11.52-3.11A5.94,5.94,0,0,0,536.46,237.54Z" style="fill:#fed93e"/><path d="M557.94,226l-3.11,11.53,11.53,3.11a6,6,0,0,0,6.88-3.1l7.36-14.84-16.53-1.09A6,6,0,0,0,557.94,226Z" style="fill:#fed93e"/><path d="M650,171.67,642.37,187l17,1.12a5.94,5.94,0,0,0,5.92-3.76l5.37-13.67-14.52-2.24A6,6,0,0,0,650,171.67Z" style="fill:#fed93e"/><path d="M678.69,154.51l-8,16.12,17.93,1.19a6,6,0,0,0,5.35-2.66l6-9.1v-9.81l-16.33,1A6,6,0,0,0,678.69,154.51Z" style="fill:#fed93e"/><path d="M471.74,309.94l-5,12.78,13.53,2.09a5.94,5.94,0,0,0,6.65-4.32l3-11.11-11.08-3A6,6,0,0,0,471.74,309.94Z" style="fill:#fed93e"/><path d="M503.66,309.85,507.93,299l-11.55-1.77a5.94,5.94,0,0,0-6.78,5,6.65,6.65,0,0,0-.06,1.26l.35,5.93,4.95,3.28a6,6,0,0,0,8.29-1.79A5.48,5.48,0,0,0,503.66,309.85Z" style="fill:#fed93e"/><path d="M633.1,234.1l1-8-7.36-3.1a6,6,0,0,0-7.86,3.2c-.09.23-.17.46-.24.7l-2.6,9.63,9.6,2.6a6,6,0,0,0,7.32-4.3A5.88,5.88,0,0,0,633.1,234.1Z" style="fill:#fed93e"/><path d="M597.88,237.12l-5,12.77L606.42,252a6,6,0,0,0,6.65-4.33l3-11.1-11.1-3A6,6,0,0,0,597.88,237.12Z" style="fill:#fed93e"/><path d="M681.63,208.41a5.94,5.94,0,0,0,6.87-3.1l7.37-14.84-16.52-1.1a6,6,0,0,0-6.13,4.39l-3.11,11.54Z" style="fill:#fed93e"/><path d="M658.6,202.22a6,6,0,0,0-6.88,3.1l-7.36,14.84,16.52,1.09a5.93,5.93,0,0,0,6.13-4.39l3.11-11.53Z" style="fill:#fed93e"/><path d="M559.62,258.51l-5.37,13.67,14.51,2.24a6,6,0,0,0,6.23-3.24l7.6-15.31-17.05-1.12A5.94,5.94,0,0,0,559.62,258.51Z" style="fill:#fed93e"/><path d="M531,273.69,518.21,293l23.08-1.35a6,6,0,0,0,5-3.3l8-16.12L536.34,271A6,6,0,0,0,531,273.69Z" style="fill:#fed93e"/><path d="M509.35,320.94,497,339.55l22.24-1.31a5.94,5.94,0,0,0,5.39-4.38l3.28-12.11-12.08-3.27A5.93,5.93,0,0,0,509.35,320.94Z" style="fill:#fed93e"/><path d="M538,307a6,6,0,0,0-7.29,4.2l-2.83,10.49,10.5,2.83a5.94,5.94,0,0,0,7.29-4.18h0l2.83-10.49Z" style="fill:#fed93e"/><path d="M621.59,260.24l-1,8,7.34,3.16a5.92,5.92,0,0,0,7.8-3.08,5.69,5.69,0,0,0,.29-.82l2.61-9.63-9.61-2.6a5.94,5.94,0,0,0-7.28,4.2A6.55,6.55,0,0,0,621.59,260.24Z" style="fill:#fed93e"/><path d="M641.62,246.7l-3,11.1,11.1,3a6,6,0,0,0,7.08-3.57l5-12.77-13.55-2.08A6,6,0,0,0,641.62,246.7Z" style="fill:#fed93e"/><path d="M566.19,289l-7.37,14.85L575.33,305a5.93,5.93,0,0,0,6.13-4.39l3.12-11.53L573.06,286A5.94,5.94,0,0,0,566.19,289Z" style="fill:#fed93e"/><path d="M587.67,277.48,584.56,289l11.53,3.11A6,6,0,0,0,603,289l7.36-14.84-16.53-1.09A6,6,0,0,0,587.67,277.48Z" style="fill:#fed93e"/><path d="M679.69,223.16l-7.59,15.31,17,1.12a5.94,5.94,0,0,0,5.92-3.76l5-12.56v-1.18l-14.08-2.17A6,6,0,0,0,679.69,223.16Z" style="fill:#fed93e"/><path d="M501.47,361.44l-5,12.77L510,376.3a5.94,5.94,0,0,0,6.65-4.32l3-11.11-11.08-3A6,6,0,0,0,501.47,361.44Z" style="fill:#fed93e"/><path d="M533.39,361.34l4.27-10.87-11.55-1.78a5.94,5.94,0,0,0-6.78,5,6.65,6.65,0,0,0-.06,1.26l.34,5.93,5,3.28a6,6,0,0,0,8.29-1.83A6.56,6.56,0,0,0,533.39,361.34Z" style="fill:#fed93e"/><path d="M662.83,285.59l1-8-7.35-3.16a6,6,0,0,0-7.85,3.22q-.14.35-.24.69l-2.6,9.62,9.6,2.6a6,6,0,0,0,7.31-4.31C662.75,286,662.8,285.81,662.83,285.59Z" style="fill:#fed93e"/><path d="M627.61,288.61l-5,12.77,13.55,2.08a5.94,5.94,0,0,0,6.64-4.32l3-11.1-11.1-3A5.93,5.93,0,0,0,627.61,288.61Z" style="fill:#fed93e"/><polygon points="700 256.83 700 256.17 699.83 256.79 700 256.83" style="fill:#fed93e"/><path d="M696.74,268.35l3.11-11.53-11.53-3.11a5.94,5.94,0,0,0-6.87,3.1l-7.36,14.84,16.52,1.09A6,6,0,0,0,696.74,268.35Z" style="fill:#fed93e"/><path d="M604.72,322.67l7.6-15.31-17.05-1.12a6,6,0,0,0-5.93,3.76L584,323.68l14.51,2.23A6,6,0,0,0,604.72,322.67Z" style="fill:#fed93e"/><path d="M566.07,322.53a6,6,0,0,0-5.35,2.65l-12.79,19.31L571,343.13a5.93,5.93,0,0,0,5-3.3l8-16.12Z" style="fill:#fed93e"/><path d="M539.08,372.43,526.76,391,549,389.7a6,6,0,0,0,5.39-4.39l3.28-12.11L545.59,370A5.93,5.93,0,0,0,539.08,372.43Z" style="fill:#fed93e"/><path d="M567.77,358.52a5.94,5.94,0,0,0-7.29,4.18h0l-2.83,10.49,10.5,2.84a6,6,0,0,0,7.29-4.2l2.83-10.49Z" style="fill:#fed93e"/><path d="M651.32,311.73l-1,8,7.35,3.17a6,6,0,0,0,7.85-3.22q.13-.35.24-.69l2.61-9.63-9.61-2.6a5.93,5.93,0,0,0-7.28,4.18A5.53,5.53,0,0,0,651.32,311.73Z" style="fill:#fed93e"/><path d="M668.36,309.29l11.09,3a6,6,0,0,0,7.09-3.57l5-12.77L678,293.86a5.94,5.94,0,0,0-6.64,4.33Z" style="fill:#fed93e"/><path d="M611.19,352.08l3.12-11.54-11.52-3.12a6,6,0,0,0-6.88,3.1l-7.37,14.85,16.52,1.09A6,6,0,0,0,611.19,352.08Z" style="fill:#fed93e"/><path d="M632.69,340.51l7.37-14.84-16.53-1.08A5.92,5.92,0,0,0,617.4,329l-3.11,11.53,11.53,3.11A6,6,0,0,0,632.69,340.51Z" style="fill:#fed93e"/><path d="M549.36,412.36l-11.08-3a5.94,5.94,0,0,0-7.08,3.57l-5,12.78,13.54,2.09a6,6,0,0,0,6.65-4.33Z" style="fill:#fed93e"/><path d="M563.12,412.83,567.38,402l-11.54-1.78a6,6,0,0,0-6.79,5.1,6.46,6.46,0,0,0,0,1.08l.34,5.93,5,3.28a5.94,5.94,0,0,0,8.22-1.71A5.75,5.75,0,0,0,563.12,412.83Z" style="fill:#fed93e"/><path d="M692.56,337.08l1-8L686.19,326a6,6,0,0,0-7.85,3.22q-.14.34-.24.69l-2.6,9.62,9.6,2.6a6,6,0,0,0,7.32-4.3A6.58,6.58,0,0,0,692.56,337.08Z" style="fill:#fed93e"/><path d="M657.34,340.1l-5,12.77L665.88,355a5.93,5.93,0,0,0,6.64-4.32l3-11.1-11.1-3A5.94,5.94,0,0,0,657.34,340.1Z" style="fill:#fed93e"/><path d="M634.45,374.16l7.6-15.31-17-1.12a6,6,0,0,0-5.93,3.76l-5.36,13.68,14.51,2.23A6,6,0,0,0,634.45,374.16Z" style="fill:#fed93e"/><path d="M595.79,374a6,6,0,0,0-5.35,2.65L577.66,396l23.09-1.36a6,6,0,0,0,5-3.29l8-16.13Z" style="fill:#fed93e"/><path d="M541.18,461.29l5-12.78-13.54-2.09a6,6,0,0,0-6.65,4.32l-3,11.12,11.09,3A5.93,5.93,0,0,0,541.18,461.29Z" style="fill:#fed93e"/><path d="M523.38,467.82l-.35-5.93-4.95-3.29a5.94,5.94,0,0,0-8.23,1.66,5.53,5.53,0,0,0-.59,1.13L505,472.26,516.54,474a6,6,0,0,0,6.79-5.1A6.46,6.46,0,0,0,523.38,467.82Z" style="fill:#fed93e"/><path d="M394.28,544.35l2.6-9.63-9.6-2.59a6,6,0,0,0-7.3,4.17,5.79,5.79,0,0,0-.16.83l-1,8,7.35,3.16a6,6,0,0,0,7.86-3.21A6.28,6.28,0,0,0,394.28,544.35Z" style="fill:#fed93e"/><path d="M415,534.11l5-12.76-13.55-2.09a5.94,5.94,0,0,0-6.64,4.33l-3,11.1,11.1,3A5.93,5.93,0,0,0,415,534.11Z" style="fill:#fed93e"/><path d="M453.3,512.73l5.37-13.68-14.51-2.23a5.93,5.93,0,0,0-6.23,3.23l-7.6,15.32,17.05,1.12A5.94,5.94,0,0,0,453.3,512.73Z" style="fill:#fed93e"/><path d="M481.93,497.55l12.78-19.31-23.08,1.36a5.94,5.94,0,0,0-5,3.29l-8,16.13,17.93,1.18A5.93,5.93,0,0,0,481.93,497.55Z" style="fill:#fed93e"/><path d="M533.3,501.79l12.32-18.61-22.24,1.3a5.94,5.94,0,0,0-5.39,4.38L514.71,501l12.08,3.27A5.93,5.93,0,0,0,533.3,501.79Z" style="fill:#fed93e"/><path d="M511.9,511.51l2.83-10.5-10.5-2.83a6,6,0,0,0-7.29,4.19l-2.83,10.5,10.5,2.83a5.94,5.94,0,0,0,7.29-4.18Z" style="fill:#fed93e"/><path d="M476.46,533.7l7.37-14.85-16.51-1.09a6,6,0,0,0-6.14,4.38l-3.11,11.54,11.52,3.11A5.94,5.94,0,0,0,476.46,533.7Z" style="fill:#fed93e"/><path d="M455,545.25l3.11-11.54-11.53-3.11a6,6,0,0,0-6.88,3.1l-7.36,14.84,16.53,1.09A6,6,0,0,0,455,545.25Z" style="fill:#fed93e"/><path d="M570.91,512.78l5-12.78-13.53-2.09a6,6,0,0,0-6.65,4.33l-3,11.11,11.08,3A6,6,0,0,0,570.91,512.78Z" style="fill:#fed93e"/><path d="M553.11,519.31l-.35-5.93-5-3.28a5.92,5.92,0,0,0-8.22,1.64,6.2,6.2,0,0,0-.6,1.14l-4.27,10.87,11.55,1.78a6,6,0,0,0,6.83-5A5.8,5.8,0,0,0,553.11,519.31Z" style="fill:#fed93e"/><path d="M483,564.22l5.37-13.68-14.51-2.23a6,6,0,0,0-6.23,3.23L460,566.86,477.11,568A5.93,5.93,0,0,0,483,564.22Z" style="fill:#fed93e"/><path d="M511.66,549l12.78-19.31-23.08,1.36a6,6,0,0,0-5,3.29l-8,16.13,17.93,1.18A6,6,0,0,0,511.66,549Z" style="fill:#fed93e"/><path d="M563,553.28l12.33-18.61L553.11,536a6,6,0,0,0-5.4,4.39l-3.27,12.11,12.07,3.27A5.94,5.94,0,0,0,563,553.28Z" style="fill:#fed93e"/><path d="M541.62,563l2.84-10.5L534,549.67a6,6,0,0,0-7.29,4.2l-2.83,10.49,10.5,2.83A5.93,5.93,0,0,0,541.62,563Z" style="fill:#fed93e"/><path d="M600.64,564.27l5-12.78L592.1,549.4a5.94,5.94,0,0,0-6.64,4.33l-3,11.11,11.08,3A6,6,0,0,0,600.64,564.27Z" style="fill:#fed93e"/><path d="M568.72,564.37l-4.27,10.87L576,577a5.94,5.94,0,0,0,6.77-5,6.51,6.51,0,0,0,.06-1.25l-.34-5.93-5-3.28a5.94,5.94,0,0,0-8.22,1.73A6.36,6.36,0,0,0,568.72,564.37Z" style="fill:#fed93e"/><path d="M630.37,615.76l5-12.77-13.54-2.1a5.94,5.94,0,0,0-6.64,4.33l-3,11.11,11.08,3A6,6,0,0,0,630.37,615.76Z" style="fill:#fed93e"/><path d="M598.44,615.86l-4.26,10.87,11.54,1.78a6,6,0,0,0,6.79-5.09,6.11,6.11,0,0,0,0-1.13l-.34-5.93-5-3.28a5.94,5.94,0,0,0-8.22,1.71A5.75,5.75,0,0,0,598.44,615.86Z" style="fill:#fed93e"/><path d="M568.81,423.92l-12.33,18.61,22.25-1.3a6,6,0,0,0,5.39-4.39l3.28-12.11-12.08-3.27A5.94,5.94,0,0,0,568.81,423.92Z" style="fill:#fed93e"/><path d="M597.5,410a5.94,5.94,0,0,0-7.29,4.18h0l-2.83,10.5,10.49,2.83a6,6,0,0,0,7.29-4.2L608,412.84Z" style="fill:#fed93e"/><path d="M681,363.22l-1,8,7.35,3.17a6,6,0,0,0,7.85-3.22q.13-.35.24-.69l2.6-9.63-9.6-2.6a6,6,0,0,0-7.31,4.31C681.08,362.78,681,363,681,363.22Z" style="fill:#fed93e"/><polygon points="700 361.3 700 353.68 698.08 360.78 700 361.3" style="fill:#fed93e"/><path d="M640.92,403.57,644,392l-11.52-3.11A5.94,5.94,0,0,0,625.6,392l-7.37,14.85L634.79,408A6,6,0,0,0,640.92,403.57Z" style="fill:#fed93e"/><path d="M662.42,392l7.36-14.84-16.52-1.08a5.94,5.94,0,0,0-6.13,4.38L644,392l11.53,3.11A5.94,5.94,0,0,0,662.42,392Z" style="fill:#fed93e"/><path d="M560.92,464.42l-5,12.78,13.54,2.09A5.94,5.94,0,0,0,576.1,475l3-11.11-11.08-3A6,6,0,0,0,560.92,464.42Z" style="fill:#fed93e"/><path d="M592.85,464.32l4.26-10.87-11.54-1.78a6,6,0,0,0-6.79,5.09,6.11,6.11,0,0,0,0,1.13l.34,5.93,5,3.28a5.94,5.94,0,0,0,8.22-1.71A5.75,5.75,0,0,0,592.85,464.32Z" style="fill:#fed93e"/><path d="M687.06,391.59l-5,12.77,13.56,2.09a6,6,0,0,0,4.39-1.09V389.6l-5.86-1.6A6,6,0,0,0,687.06,391.59Z" style="fill:#fed93e"/><path d="M664.18,425.66l7.6-15.32-17-1.12a6,6,0,0,0-6,3.78l-5.36,13.68L658,428.89A6,6,0,0,0,664.18,425.66Z" style="fill:#fed93e"/><path d="M625.52,425.51a6,6,0,0,0-5.35,2.65l-12.78,19.31,23.09-1.36a6,6,0,0,0,5-3.29l8-16.13Z" style="fill:#fed93e"/><path d="M598.54,475.41,586.21,494l22.25-1.3a6,6,0,0,0,5.39-4.38l3.28-12.12L605.05,473A5.94,5.94,0,0,0,598.54,475.41Z" style="fill:#fed93e"/><path d="M627.23,461.5a5.94,5.94,0,0,0-7.29,4.18h0l-2.83,10.5L627.6,479a6,6,0,0,0,7.29-4.19l2.83-10.5Z" style="fill:#fed93e"/><path d="M655.37,443.5,648,458.35l16.52,1.09a6,6,0,0,0,6.13-4.38l3.12-11.54-11.52-3.11A5.94,5.94,0,0,0,655.37,443.5Z" style="fill:#fed93e"/><path d="M676.86,432l-3.11,11.53,11.53,3.11a5.94,5.94,0,0,0,6.87-3.09l7.36-14.85L683,427.57A5.94,5.94,0,0,0,676.86,432Z" style="fill:#fed93e"/><path d="M590.65,515.91l-5,12.78,13.54,2.09a5.94,5.94,0,0,0,6.64-4.32l3-11.12-11.08-3A6,6,0,0,0,590.65,515.91Z" style="fill:#fed93e"/><path d="M622.58,515.81l4.26-10.87-11.54-1.78a6,6,0,0,0-6.79,5.09,6.11,6.11,0,0,0,0,1.13l.34,5.93,5,3.29a6,6,0,0,0,8.28-1.83A6.26,6.26,0,0,0,622.58,515.81Z" style="fill:#fed93e"/><path d="M678.53,464.47l-5.37,13.68,14.52,2.23a6,6,0,0,0,6.23-3.23L700,464.86v-3.13l-15.54-1A6,6,0,0,0,678.53,464.47Z" style="fill:#fed93e"/><path d="M649.9,479.65,637.12,499l23.08-1.36a6,6,0,0,0,5-3.29l8-16.13-18-1.22A6,6,0,0,0,649.9,479.65Z" style="fill:#fed93e"/><path d="M628.27,526.9l-12.33,18.61,22.25-1.3a6,6,0,0,0,5.39-4.38l3.27-12.12-12.07-3.27A5.94,5.94,0,0,0,628.27,526.9Z" style="fill:#fed93e"/><path d="M649.67,517.18l-2.83,10.5,10.49,2.83a6,6,0,0,0,7.29-4.19l2.83-10.5L657,513a6,6,0,0,0-7.32,4.13Z" style="fill:#fed93e"/><path d="M685.1,495l-7.37,14.85,16.52,1.09a5.94,5.94,0,0,0,5.75-3.37v-13.5l-8-2.17A6,6,0,0,0,685.1,495Z" style="fill:#fed93e"/><path d="M620.38,567.4l-5,12.78,13.53,2.09a6,6,0,0,0,6.65-4.32l3-11.12-11.08-3A5.94,5.94,0,0,0,620.38,567.4Z" style="fill:#fed93e"/><path d="M652.3,567.3l4.27-10.87L645,554.65a6,6,0,0,0-6.79,5.09,6.22,6.22,0,0,0-.05,1.14l.35,5.92,5,3.29a6,6,0,0,0,8.23-1.7A6.23,6.23,0,0,0,652.3,567.3Z" style="fill:#fed93e"/><path d="M679.63,531.14l-12.78,19.31,23.08-1.36a5.94,5.94,0,0,0,5-3.29L700,535.54v-6.06l-15-1A6,6,0,0,0,679.63,531.14Z" style="fill:#fed93e"/><path d="M658,578.39,645.67,597l22.24-1.31a5.92,5.92,0,0,0,5.39-4.38l3.28-12.12-12.07-3.27A6,6,0,0,0,658,578.39Z" style="fill:#fed93e"/><path d="M694.35,577.81l2.83-10.5-10.5-2.83a5.94,5.94,0,0,0-7.29,4.18h0l-2.83,10.5,10.5,2.83A6,6,0,0,0,694.35,577.81Z" style="fill:#fed93e"/><path d="M650.11,618.89l-5,12.78,13.53,2.09a6,6,0,0,0,6.65-4.32l3-11.11-11.08-3A6,6,0,0,0,650.11,618.89Z" style="fill:#fed93e"/><path d="M667.91,612.37l.35,5.92,5,3.29a5.94,5.94,0,0,0,8.23-1.66,5.53,5.53,0,0,0,.59-1.13l4.27-10.87-11.55-1.77a5.93,5.93,0,0,0-6.82,4.9A5.85,5.85,0,0,0,667.91,612.37Z" style="fill:#fed93e"/><polygon points="700 601.74 700 596.77 696.58 601.94 700 601.74" style="fill:#fed93e"/></svg>