<svg xmlns="http://www.w3.org/2000/svg" viewBox="0 0 623.44 173.95"><defs><style>.cls-1{fill:#e30613;}.cls-2{fill:none;stroke:#e30613;stroke-miterlimit:10;stroke-width:3.88px;}</style></defs><title>sigma_logo_wire_red</title><g id="Layer_2" data-name="Layer 2"><g id="Lager_1" data-name="Lager 1"><path class="cls-1" d="M207.78,123.7h55c11.7,0,21.23-9,21.23-20V100c0-10.8-9-19.55-20.47-19.93l-.39,0H226a5.68,5.68,0,0,1-5.84-5.49V71A5.68,5.68,0,0,1,226,65.47h53.84V51H226c-11.7,0-21.22,9-21.22,19.95v3.6c0,11,9.52,20,21.22,20h36.76a5.7,5.7,0,0,1,5.84,5.5v3.74a5.68,5.68,0,0,1-5.84,5.49h-55Z"/><path class="cls-1" d="M302.18,123.69h15.38V51H302.18Z"/><path class="cls-1" d="M517.38,123.66h15.39V71c0-11-9.52-20-21.23-20H434.88v72.63h15.29V65.49h25.62v58.17h15.36V65.49h20.38A5.69,5.69,0,0,1,517.39,71Z"/><path class="cls-1" d="M623.44,71c0-11-9.52-19.95-21.23-19.95H553.35V65.47h48.86A5.69,5.69,0,0,1,608.06,71v9.09H569.28c-11.71,0-21.22,9-21.22,20v3.7c0,11,9.51,20,21.22,20h54.1ZM608,109.2H569.28a5.68,5.68,0,0,1-5.85-5.49V100a5.68,5.68,0,0,1,5.85-5.49H608Z"/><path class="cls-1" d="M338.3,103.76c0,11,9.52,19.95,21.22,19.95H413.7V80.1H373.22V94.56h25v14.69H359.52a5.69,5.69,0,0,1-5.85-5.49V71a5.69,5.69,0,0,1,5.85-5.49h54V51h-54C347.8,51,338.29,60,338.29,71Z"/><path class="cls-2" d="M87,1.94c-12.09,0-22.33,24.88-25.81,59.23C26.82,64.65,1.94,74.89,1.94,87s24.88,22.33,59.23,25.81C64.65,147.13,74.89,172,87,172c15,0,27.08-38.08,27.08-85S101.93,1.94,87,1.94Z"/><path class="cls-2" d="M112.79,61.17,61.17,112.79c8.14.82,16.81,1.27,25.81,1.27,47,0,85-12.13,85-27.08C172,74.89,147.14,64.65,112.79,61.17Z"/><path class="cls-2" d="M112.79,61.17h0L61.17,112.79c8.14.82,16.81,1.27,25.81,1.27s17.67-.45,25.81-1.27c.82-8.14,1.27-16.81,1.27-25.81S113.61,69.31,112.79,61.17Z"/><path class="cls-2" d="M61.18,112.79l51.61-51.62a262.8,262.8,0,0,0-51.61,0,262.9,262.9,0,0,0,0,51.62Z"/></g></g></svg>